<svg width="890" height="72" viewBox="0 0 890 72" fill="none" xmlns="http://www.w3.org/2000/svg">
<rect width="890" height="72" fill="#BF0909"/>
<path d="M253.985 44V26.8203H260.465C261.606 26.8203 262.477 26.875 263.078 26.9844C263.922 27.125 264.629 27.3945 265.2 27.793C265.77 28.1836 266.227 28.7344 266.571 29.4453C266.922 30.1562 267.098 30.9375 267.098 31.7891C267.098 33.25 266.633 34.4883 265.703 35.5039C264.774 36.5117 263.094 37.0156 260.664 37.0156H256.258V44H253.985ZM256.258 34.9883H260.7C262.168 34.9883 263.211 34.7148 263.828 34.168C264.446 33.6211 264.754 32.8516 264.754 31.8594C264.754 31.1406 264.571 30.5273 264.203 30.0195C263.844 29.5039 263.368 29.1641 262.774 29C262.391 28.8984 261.684 28.8477 260.653 28.8477H256.258V34.9883ZM269.676 44V26.8203H271.786V44H269.676ZM283.188 42.4648C282.407 43.1289 281.653 43.5977 280.926 43.8711C280.207 44.1445 279.434 44.2812 278.606 44.2812C277.239 44.2812 276.188 43.9492 275.453 43.2852C274.719 42.6133 274.352 41.7578 274.352 40.7188C274.352 40.1094 274.489 39.5547 274.762 39.0547C275.043 38.5469 275.407 38.1406 275.852 37.8359C276.305 37.5312 276.813 37.3008 277.375 37.1445C277.789 37.0352 278.414 36.9297 279.25 36.8281C280.953 36.625 282.207 36.3828 283.012 36.1016C283.02 35.8125 283.024 35.6289 283.024 35.5508C283.024 34.6914 282.825 34.0859 282.426 33.7344C281.887 33.2578 281.086 33.0195 280.024 33.0195C279.032 33.0195 278.297 33.1953 277.821 33.5469C277.352 33.8906 277.004 34.5039 276.778 35.3867L274.715 35.1055C274.903 34.2227 275.211 33.5117 275.641 32.9727C276.071 32.4258 276.692 32.0078 277.504 31.7188C278.317 31.4219 279.258 31.2734 280.328 31.2734C281.391 31.2734 282.254 31.3984 282.918 31.6484C283.582 31.8984 284.071 32.2148 284.383 32.5977C284.696 32.9727 284.914 33.4492 285.039 34.0273C285.11 34.3867 285.145 35.0352 285.145 35.9727V38.7852C285.145 40.7461 285.188 41.9883 285.274 42.5117C285.368 43.0273 285.547 43.5234 285.813 44H283.61C283.391 43.5625 283.25 43.0508 283.188 42.4648ZM283.012 37.7539C282.246 38.0664 281.098 38.332 279.567 38.5508C278.7 38.6758 278.086 38.8164 277.727 38.9727C277.368 39.1289 277.09 39.3594 276.895 39.6641C276.7 39.9609 276.602 40.293 276.602 40.6602C276.602 41.2227 276.813 41.6914 277.235 42.0664C277.664 42.4414 278.289 42.6289 279.11 42.6289C279.922 42.6289 280.645 42.4531 281.278 42.1016C281.911 41.7422 282.375 41.2539 282.672 40.6367C282.899 40.1602 283.012 39.457 283.012 38.5273V37.7539ZM293.032 42.1133L293.336 43.9766C292.743 44.1016 292.211 44.1641 291.743 44.1641C290.977 44.1641 290.383 44.043 289.961 43.8008C289.539 43.5586 289.243 43.2422 289.071 42.8516C288.899 42.4531 288.813 41.6211 288.813 40.3555V33.1953H287.266V31.5547H288.813V28.4727L290.911 27.207V31.5547H293.032V33.1953H290.911V40.4727C290.911 41.0742 290.946 41.4609 291.016 41.6328C291.094 41.8047 291.215 41.9414 291.379 42.043C291.551 42.1445 291.793 42.1953 292.106 42.1953C292.34 42.1953 292.649 42.168 293.032 42.1133ZM303.227 42.4648C302.446 43.1289 301.692 43.5977 300.965 43.8711C300.246 44.1445 299.473 44.2812 298.645 44.2812C297.278 44.2812 296.227 43.9492 295.493 43.2852C294.758 42.6133 294.391 41.7578 294.391 40.7188C294.391 40.1094 294.528 39.5547 294.801 39.0547C295.082 38.5469 295.446 38.1406 295.891 37.8359C296.344 37.5312 296.852 37.3008 297.414 37.1445C297.828 37.0352 298.453 36.9297 299.289 36.8281C300.993 36.625 302.246 36.3828 303.051 36.1016C303.059 35.8125 303.063 35.6289 303.063 35.5508C303.063 34.6914 302.864 34.0859 302.465 33.7344C301.926 33.2578 301.125 33.0195 300.063 33.0195C299.071 33.0195 298.336 33.1953 297.86 33.5469C297.391 33.8906 297.043 34.5039 296.817 35.3867L294.754 35.1055C294.942 34.2227 295.25 33.5117 295.68 32.9727C296.11 32.4258 296.731 32.0078 297.543 31.7188C298.356 31.4219 299.297 31.2734 300.368 31.2734C301.43 31.2734 302.293 31.3984 302.957 31.6484C303.621 31.8984 304.11 32.2148 304.422 32.5977C304.735 32.9727 304.953 33.4492 305.078 34.0273C305.149 34.3867 305.184 35.0352 305.184 35.9727V38.7852C305.184 40.7461 305.227 41.9883 305.313 42.5117C305.407 43.0273 305.586 43.5234 305.852 44H303.649C303.43 43.5625 303.289 43.0508 303.227 42.4648ZM303.051 37.7539C302.286 38.0664 301.137 38.332 299.606 38.5508C298.739 38.6758 298.125 38.8164 297.766 38.9727C297.407 39.1289 297.129 39.3594 296.934 39.6641C296.739 39.9609 296.641 40.293 296.641 40.6602C296.641 41.2227 296.852 41.6914 297.274 42.0664C297.703 42.4414 298.328 42.6289 299.149 42.6289C299.961 42.6289 300.684 42.4531 301.317 42.1016C301.95 41.7422 302.414 41.2539 302.711 40.6367C302.938 40.1602 303.051 39.457 303.051 38.5273V37.7539ZM308.969 44V33.1953H307.106V31.5547H308.969V30.2305C308.969 29.3945 309.043 28.7734 309.192 28.3672C309.395 27.8203 309.75 27.3789 310.258 27.043C310.774 26.6992 311.493 26.5273 312.414 26.5273C313.008 26.5273 313.664 26.5977 314.383 26.7383L314.067 28.5781C313.629 28.5 313.215 28.4609 312.825 28.4609C312.184 28.4609 311.731 28.5977 311.465 28.8711C311.2 29.1445 311.067 29.6562 311.067 30.4062V31.5547H313.493V33.1953H311.067V44H308.969ZM314.36 37.7773C314.36 35.4727 315 33.7656 316.282 32.6562C317.352 31.7344 318.657 31.2734 320.196 31.2734C321.907 31.2734 323.305 31.8359 324.391 32.9609C325.477 34.0781 326.02 35.625 326.02 37.6016C326.02 39.2031 325.778 40.4648 325.293 41.3867C324.817 42.3008 324.118 43.0117 323.196 43.5195C322.282 44.0273 321.282 44.2812 320.196 44.2812C318.453 44.2812 317.043 43.7227 315.965 42.6055C314.895 41.4883 314.36 39.8789 314.36 37.7773ZM316.528 37.7773C316.528 39.3711 316.875 40.5664 317.571 41.3633C318.266 42.1523 319.141 42.5469 320.196 42.5469C321.243 42.5469 322.114 42.1484 322.809 41.3516C323.504 40.5547 323.852 39.3398 323.852 37.707C323.852 36.168 323.5 35.0039 322.797 34.2148C322.102 33.418 321.235 33.0195 320.196 33.0195C319.141 33.0195 318.266 33.4141 317.571 34.2031C316.875 34.9922 316.528 36.1836 316.528 37.7773ZM328.481 44V31.5547H330.379V33.4414C330.864 32.5586 331.309 31.9766 331.715 31.6953C332.129 31.4141 332.582 31.2734 333.075 31.2734C333.786 31.2734 334.508 31.5 335.243 31.9531L334.516 33.9102C334 33.6055 333.485 33.4531 332.969 33.4531C332.508 33.4531 332.094 33.5938 331.727 33.875C331.36 34.1484 331.098 34.5312 330.942 35.0234C330.707 35.7734 330.59 36.5938 330.59 37.4844V44H328.481ZM336.496 44V31.5547H338.383V33.3008C338.774 32.6914 339.293 32.2031 339.942 31.8359C340.59 31.4609 341.328 31.2734 342.157 31.2734C343.078 31.2734 343.832 31.4648 344.418 31.8477C345.012 32.2305 345.43 32.7656 345.672 33.4531C346.657 32 347.938 31.2734 349.516 31.2734C350.75 31.2734 351.7 31.6172 352.364 32.3047C353.028 32.9844 353.36 34.0352 353.36 35.457V44H351.262V36.1602C351.262 35.3164 351.192 34.7109 351.051 34.3438C350.918 33.9688 350.672 33.668 350.313 33.4414C349.953 33.2148 349.532 33.1016 349.047 33.1016C348.172 33.1016 347.446 33.3945 346.868 33.9805C346.289 34.5586 346 35.4883 346 36.7695V44H343.891V35.9141C343.891 34.9766 343.719 34.2734 343.375 33.8047C343.032 33.3359 342.469 33.1016 341.688 33.1016C341.094 33.1016 340.543 33.2578 340.036 33.5703C339.536 33.8828 339.172 34.3398 338.946 34.9414C338.719 35.543 338.606 36.4102 338.606 37.543V44H336.496ZM364.61 42.4648C363.828 43.1289 363.075 43.5977 362.348 43.8711C361.629 44.1445 360.856 44.2812 360.028 44.2812C358.661 44.2812 357.61 43.9492 356.875 43.2852C356.141 42.6133 355.774 41.7578 355.774 40.7188C355.774 40.1094 355.911 39.5547 356.184 39.0547C356.465 38.5469 356.828 38.1406 357.274 37.8359C357.727 37.5312 358.235 37.3008 358.797 37.1445C359.211 37.0352 359.836 36.9297 360.672 36.8281C362.375 36.625 363.629 36.3828 364.434 36.1016C364.442 35.8125 364.446 35.6289 364.446 35.5508C364.446 34.6914 364.246 34.0859 363.848 33.7344C363.309 33.2578 362.508 33.0195 361.446 33.0195C360.453 33.0195 359.719 33.1953 359.243 33.5469C358.774 33.8906 358.426 34.5039 358.2 35.3867L356.137 35.1055C356.325 34.2227 356.633 33.5117 357.063 32.9727C357.493 32.4258 358.114 32.0078 358.926 31.7188C359.739 31.4219 360.68 31.2734 361.75 31.2734C362.813 31.2734 363.676 31.3984 364.34 31.6484C365.004 31.8984 365.493 32.2148 365.805 32.5977C366.118 32.9727 366.336 33.4492 366.461 34.0273C366.532 34.3867 366.567 35.0352 366.567 35.9727V38.7852C366.567 40.7461 366.61 41.9883 366.696 42.5117C366.789 43.0273 366.969 43.5234 367.235 44H365.032C364.813 43.5625 364.672 43.0508 364.61 42.4648ZM364.434 37.7539C363.668 38.0664 362.52 38.332 360.989 38.5508C360.121 38.6758 359.508 38.8164 359.149 38.9727C358.789 39.1289 358.512 39.3594 358.317 39.6641C358.121 39.9609 358.024 40.293 358.024 40.6602C358.024 41.2227 358.235 41.6914 358.657 42.0664C359.086 42.4414 359.711 42.6289 360.532 42.6289C361.344 42.6289 362.067 42.4531 362.7 42.1016C363.332 41.7422 363.797 41.2539 364.094 40.6367C364.321 40.1602 364.434 39.457 364.434 38.5273V37.7539ZM376.774 44V26.8203H379.106L388.129 40.3086V26.8203H390.309V44H387.977L378.953 30.5V44H376.774ZM401.993 42.4648C401.211 43.1289 400.457 43.5977 399.731 43.8711C399.012 44.1445 398.239 44.2812 397.411 44.2812C396.043 44.2812 394.993 43.9492 394.258 43.2852C393.524 42.6133 393.157 41.7578 393.157 40.7188C393.157 40.1094 393.293 39.5547 393.567 39.0547C393.848 38.5469 394.211 38.1406 394.657 37.8359C395.11 37.5312 395.618 37.3008 396.18 37.1445C396.594 37.0352 397.219 36.9297 398.055 36.8281C399.758 36.625 401.012 36.3828 401.817 36.1016C401.825 35.8125 401.828 35.6289 401.828 35.5508C401.828 34.6914 401.629 34.0859 401.231 33.7344C400.692 33.2578 399.891 33.0195 398.828 33.0195C397.836 33.0195 397.102 33.1953 396.625 33.5469C396.157 33.8906 395.809 34.5039 395.582 35.3867L393.52 35.1055C393.707 34.2227 394.016 33.5117 394.446 32.9727C394.875 32.4258 395.496 32.0078 396.309 31.7188C397.121 31.4219 398.063 31.2734 399.133 31.2734C400.196 31.2734 401.059 31.3984 401.723 31.6484C402.387 31.8984 402.875 32.2148 403.188 32.5977C403.5 32.9727 403.719 33.4492 403.844 34.0273C403.914 34.3867 403.95 35.0352 403.95 35.9727V38.7852C403.95 40.7461 403.993 41.9883 404.078 42.5117C404.172 43.0273 404.352 43.5234 404.618 44H402.414C402.196 43.5625 402.055 43.0508 401.993 42.4648ZM401.817 37.7539C401.051 38.0664 399.903 38.332 398.371 38.5508C397.504 38.6758 396.891 38.8164 396.532 38.9727C396.172 39.1289 395.895 39.3594 395.7 39.6641C395.504 39.9609 395.407 40.293 395.407 40.6602C395.407 41.2227 395.618 41.6914 396.039 42.0664C396.469 42.4414 397.094 42.6289 397.914 42.6289C398.727 42.6289 399.45 42.4531 400.082 42.1016C400.715 41.7422 401.18 41.2539 401.477 40.6367C401.703 40.1602 401.817 39.457 401.817 38.5273V37.7539ZM415.352 39.4414L417.426 39.7109C417.2 41.1406 416.618 42.2617 415.68 43.0742C414.75 43.8789 413.606 44.2812 412.246 44.2812C410.543 44.2812 409.172 43.7266 408.133 42.6172C407.102 41.5 406.586 39.9023 406.586 37.8242C406.586 36.4805 406.809 35.3047 407.254 34.2969C407.7 33.2891 408.375 32.5352 409.282 32.0352C410.196 31.5273 411.188 31.2734 412.258 31.2734C413.61 31.2734 414.715 31.6172 415.575 32.3047C416.434 32.9844 416.985 33.9531 417.227 35.2109L415.176 35.5273C414.981 34.6914 414.633 34.0625 414.133 33.6406C413.641 33.2188 413.043 33.0078 412.34 33.0078C411.278 33.0078 410.414 33.3906 409.75 34.1562C409.086 34.9141 408.754 36.1172 408.754 37.7656C408.754 39.4375 409.075 40.6523 409.715 41.4102C410.356 42.168 411.192 42.5469 412.223 42.5469C413.051 42.5469 413.743 42.293 414.297 41.7852C414.852 41.2773 415.203 40.4961 415.352 39.4414ZM419.243 29.2461V26.8203H421.352V29.2461H419.243ZM419.243 44V31.5547H421.352V44H419.243ZM423.789 37.7773C423.789 35.4727 424.43 33.7656 425.711 32.6562C426.782 31.7344 428.086 31.2734 429.625 31.2734C431.336 31.2734 432.735 31.8359 433.821 32.9609C434.907 34.0781 435.45 35.625 435.45 37.6016C435.45 39.2031 435.207 40.4648 434.723 41.3867C434.246 42.3008 433.547 43.0117 432.625 43.5195C431.711 44.0273 430.711 44.2812 429.625 44.2812C427.883 44.2812 426.473 43.7227 425.395 42.6055C424.325 41.4883 423.789 39.8789 423.789 37.7773ZM425.957 37.7773C425.957 39.3711 426.305 40.5664 427 41.3633C427.696 42.1523 428.571 42.5469 429.625 42.5469C430.672 42.5469 431.543 42.1484 432.239 41.3516C432.934 40.5547 433.282 39.3398 433.282 37.707C433.282 36.168 432.93 35.0039 432.227 34.2148C431.532 33.418 430.664 33.0195 429.625 33.0195C428.571 33.0195 427.696 33.4141 427 34.2031C426.305 34.9922 425.957 36.1836 425.957 37.7773ZM437.934 44V31.5547H439.832V33.3242C440.746 31.957 442.067 31.2734 443.793 31.2734C444.543 31.2734 445.231 31.4102 445.856 31.6836C446.489 31.9492 446.961 32.3008 447.274 32.7383C447.586 33.1758 447.805 33.6953 447.93 34.2969C448.008 34.6875 448.047 35.3711 448.047 36.3477V44H445.938V36.4297C445.938 35.5703 445.856 34.9297 445.692 34.5078C445.528 34.0781 445.235 33.7383 444.813 33.4883C444.399 33.2305 443.911 33.1016 443.348 33.1016C442.45 33.1016 441.672 33.3867 441.016 33.957C440.368 34.5273 440.043 35.6094 440.043 37.2031V44H437.934ZM459.414 42.4648C458.633 43.1289 457.879 43.5977 457.153 43.8711C456.434 44.1445 455.661 44.2812 454.832 44.2812C453.465 44.2812 452.414 43.9492 451.68 43.2852C450.946 42.6133 450.578 41.7578 450.578 40.7188C450.578 40.1094 450.715 39.5547 450.989 39.0547C451.27 38.5469 451.633 38.1406 452.078 37.8359C452.532 37.5312 453.039 37.3008 453.602 37.1445C454.016 37.0352 454.641 36.9297 455.477 36.8281C457.18 36.625 458.434 36.3828 459.239 36.1016C459.246 35.8125 459.25 35.6289 459.25 35.5508C459.25 34.6914 459.051 34.0859 458.653 33.7344C458.114 33.2578 457.313 33.0195 456.25 33.0195C455.258 33.0195 454.524 33.1953 454.047 33.5469C453.578 33.8906 453.231 34.5039 453.004 35.3867L450.942 35.1055C451.129 34.2227 451.438 33.5117 451.868 32.9727C452.297 32.4258 452.918 32.0078 453.731 31.7188C454.543 31.4219 455.485 31.2734 456.555 31.2734C457.618 31.2734 458.481 31.3984 459.145 31.6484C459.809 31.8984 460.297 32.2148 460.61 32.5977C460.922 32.9727 461.141 33.4492 461.266 34.0273C461.336 34.3867 461.371 35.0352 461.371 35.9727V38.7852C461.371 40.7461 461.414 41.9883 461.5 42.5117C461.594 43.0273 461.774 43.5234 462.039 44H459.836C459.618 43.5625 459.477 43.0508 459.414 42.4648ZM459.239 37.7539C458.473 38.0664 457.325 38.332 455.793 38.5508C454.926 38.6758 454.313 38.8164 453.953 38.9727C453.594 39.1289 453.317 39.3594 453.121 39.6641C452.926 39.9609 452.828 40.293 452.828 40.6602C452.828 41.2227 453.039 41.6914 453.461 42.0664C453.891 42.4414 454.516 42.6289 455.336 42.6289C456.149 42.6289 456.871 42.4531 457.504 42.1016C458.137 41.7422 458.602 41.2539 458.899 40.6367C459.125 40.1602 459.239 39.457 459.239 38.5273V37.7539ZM464.606 44V26.8203H466.715V44H464.606ZM484.75 44V42.4297C483.961 43.6641 482.801 44.2812 481.27 44.2812C480.278 44.2812 479.364 44.0078 478.528 43.4609C477.7 42.9141 477.055 42.1523 476.594 41.1758C476.141 40.1914 475.914 39.0625 475.914 37.7891C475.914 36.5469 476.121 35.4219 476.536 34.4141C476.95 33.3984 477.571 32.6211 478.399 32.082C479.227 31.543 480.153 31.2734 481.176 31.2734C481.926 31.2734 482.594 31.4336 483.18 31.7539C483.766 32.0664 484.243 32.4766 484.61 32.9844V26.8203H486.707V44H484.75ZM478.082 37.7891C478.082 39.3828 478.418 40.5742 479.09 41.3633C479.762 42.1523 480.555 42.5469 481.469 42.5469C482.391 42.5469 483.172 42.1719 483.813 41.4219C484.461 40.6641 484.786 39.5117 484.786 37.9648C484.786 36.2617 484.457 35.0117 483.801 34.2148C483.145 33.418 482.336 33.0195 481.375 33.0195C480.438 33.0195 479.653 33.4023 479.02 34.168C478.395 34.9336 478.082 36.1406 478.082 37.7891ZM498.555 39.9922L500.735 40.2617C500.391 41.5352 499.754 42.5234 498.825 43.2266C497.895 43.9297 496.707 44.2812 495.262 44.2812C493.442 44.2812 491.996 43.7227 490.926 42.6055C489.864 41.4805 489.332 39.9062 489.332 37.8828C489.332 35.7891 489.871 34.1641 490.95 33.0078C492.028 31.8516 493.426 31.2734 495.145 31.2734C496.809 31.2734 498.168 31.8398 499.223 32.9727C500.278 34.1055 500.805 35.6992 500.805 37.7539C500.805 37.8789 500.801 38.0664 500.793 38.3164H491.512C491.59 39.6836 491.977 40.7305 492.672 41.457C493.368 42.1836 494.235 42.5469 495.274 42.5469C496.047 42.5469 496.707 42.3438 497.254 41.9375C497.801 41.5312 498.235 40.8828 498.555 39.9922ZM491.629 36.582H498.578C498.485 35.5352 498.219 34.75 497.782 34.2266C497.11 33.4141 496.239 33.0078 495.168 33.0078C494.2 33.0078 493.383 33.332 492.719 33.9805C492.063 34.6289 491.7 35.4961 491.629 36.582ZM510.344 44V26.8203H516.262C517.598 26.8203 518.618 26.9023 519.321 27.0664C520.305 27.293 521.145 27.7031 521.84 28.2969C522.746 29.0625 523.422 30.043 523.868 31.2383C524.321 32.4258 524.547 33.7852 524.547 35.3164C524.547 36.6211 524.395 37.7773 524.09 38.7852C523.786 39.793 523.395 40.6289 522.918 41.293C522.442 41.9492 521.918 42.4688 521.348 42.8516C520.786 43.2266 520.102 43.5117 519.297 43.707C518.5 43.9023 517.582 44 516.543 44H510.344ZM512.618 41.9727H516.286C517.418 41.9727 518.305 41.8672 518.946 41.6562C519.594 41.4453 520.11 41.1484 520.493 40.7656C521.032 40.2266 521.45 39.5039 521.746 38.5977C522.051 37.6836 522.203 36.5781 522.203 35.2812C522.203 33.4844 521.907 32.1055 521.313 31.1445C520.727 30.1758 520.012 29.5273 519.168 29.1992C518.559 28.9648 517.578 28.8477 516.227 28.8477H512.618V41.9727ZM535.539 42.4648C534.758 43.1289 534.004 43.5977 533.278 43.8711C532.559 44.1445 531.786 44.2812 530.957 44.2812C529.59 44.2812 528.539 43.9492 527.805 43.2852C527.071 42.6133 526.703 41.7578 526.703 40.7188C526.703 40.1094 526.84 39.5547 527.114 39.0547C527.395 38.5469 527.758 38.1406 528.203 37.8359C528.657 37.5312 529.164 37.3008 529.727 37.1445C530.141 37.0352 530.766 36.9297 531.602 36.8281C533.305 36.625 534.559 36.3828 535.364 36.1016C535.371 35.8125 535.375 35.6289 535.375 35.5508C535.375 34.6914 535.176 34.0859 534.778 33.7344C534.239 33.2578 533.438 33.0195 532.375 33.0195C531.383 33.0195 530.649 33.1953 530.172 33.5469C529.703 33.8906 529.356 34.5039 529.129 35.3867L527.067 35.1055C527.254 34.2227 527.563 33.5117 527.993 32.9727C528.422 32.4258 529.043 32.0078 529.856 31.7188C530.668 31.4219 531.61 31.2734 532.68 31.2734C533.743 31.2734 534.606 31.3984 535.27 31.6484C535.934 31.8984 536.422 32.2148 536.735 32.5977C537.047 32.9727 537.266 33.4492 537.391 34.0273C537.461 34.3867 537.496 35.0352 537.496 35.9727V38.7852C537.496 40.7461 537.539 41.9883 537.625 42.5117C537.719 43.0273 537.899 43.5234 538.164 44H535.961C535.743 43.5625 535.602 43.0508 535.539 42.4648ZM535.364 37.7539C534.598 38.0664 533.45 38.332 531.918 38.5508C531.051 38.6758 530.438 38.8164 530.078 38.9727C529.719 39.1289 529.442 39.3594 529.246 39.6641C529.051 39.9609 528.953 40.293 528.953 40.6602C528.953 41.2227 529.164 41.6914 529.586 42.0664C530.016 42.4414 530.641 42.6289 531.461 42.6289C532.274 42.6289 532.996 42.4531 533.629 42.1016C534.262 41.7422 534.727 41.2539 535.024 40.6367C535.25 40.1602 535.364 39.457 535.364 38.5273V37.7539ZM545.383 42.1133L545.688 43.9766C545.094 44.1016 544.563 44.1641 544.094 44.1641C543.328 44.1641 542.735 44.043 542.313 43.8008C541.891 43.5586 541.594 43.2422 541.422 42.8516C541.25 42.4531 541.164 41.6211 541.164 40.3555V33.1953H539.618V31.5547H541.164V28.4727L543.262 27.207V31.5547H545.383V33.1953H543.262V40.4727C543.262 41.0742 543.297 41.4609 543.368 41.6328C543.446 41.8047 543.567 41.9414 543.731 42.043C543.903 42.1445 544.145 42.1953 544.457 42.1953C544.692 42.1953 545 42.168 545.383 42.1133ZM546.672 37.7773C546.672 35.4727 547.313 33.7656 548.594 32.6562C549.664 31.7344 550.969 31.2734 552.508 31.2734C554.219 31.2734 555.618 31.8359 556.703 32.9609C557.789 34.0781 558.332 35.625 558.332 37.6016C558.332 39.2031 558.09 40.4648 557.606 41.3867C557.129 42.3008 556.43 43.0117 555.508 43.5195C554.594 44.0273 553.594 44.2812 552.508 44.2812C550.766 44.2812 549.356 43.7227 548.278 42.6055C547.207 41.4883 546.672 39.8789 546.672 37.7773ZM548.84 37.7773C548.84 39.3711 549.188 40.5664 549.883 41.3633C550.578 42.1523 551.453 42.5469 552.508 42.5469C553.555 42.5469 554.426 42.1484 555.121 41.3516C555.817 40.5547 556.164 39.3398 556.164 37.707C556.164 36.168 555.813 35.0039 555.11 34.2148C554.414 33.418 553.547 33.0195 552.508 33.0195C551.453 33.0195 550.578 33.4141 549.883 34.2031C549.188 34.9922 548.84 36.1836 548.84 37.7773ZM559.973 40.2852L562.059 39.957C562.176 40.793 562.5 41.4336 563.032 41.8789C563.571 42.3242 564.321 42.5469 565.282 42.5469C566.25 42.5469 566.969 42.3516 567.438 41.9609C567.907 41.5625 568.141 41.0977 568.141 40.5664C568.141 40.0898 567.934 39.7148 567.52 39.4414C567.231 39.2539 566.512 39.0156 565.364 38.7266C563.817 38.3359 562.743 38 562.141 37.7188C561.547 37.4297 561.094 37.0352 560.782 36.5352C560.477 36.0273 560.325 35.4688 560.325 34.8594C560.325 34.3047 560.45 33.793 560.7 33.3242C560.957 32.8477 561.305 32.4531 561.743 32.1406C562.071 31.8984 562.516 31.6953 563.078 31.5312C563.649 31.3594 564.258 31.2734 564.907 31.2734C565.883 31.2734 566.739 31.4141 567.473 31.6953C568.215 31.9766 568.762 32.3594 569.114 32.8438C569.465 33.3203 569.707 33.9609 569.84 34.7656L567.778 35.0469C567.684 34.4062 567.411 33.9062 566.957 33.5469C566.512 33.1875 565.879 33.0078 565.059 33.0078C564.09 33.0078 563.399 33.168 562.985 33.4883C562.571 33.8086 562.364 34.1836 562.364 34.6133C562.364 34.8867 562.45 35.1328 562.621 35.3516C562.793 35.5781 563.063 35.7656 563.43 35.9141C563.641 35.9922 564.262 36.1719 565.293 36.4531C566.786 36.8516 567.825 37.1797 568.411 37.4375C569.004 37.6875 569.469 38.0547 569.805 38.5391C570.141 39.0234 570.309 39.625 570.309 40.3438C570.309 41.0469 570.102 41.7109 569.688 42.3359C569.282 42.9531 568.692 43.4336 567.918 43.7773C567.145 44.1133 566.27 44.2812 565.293 44.2812C563.676 44.2812 562.442 43.9453 561.59 43.2734C560.746 42.6016 560.207 41.6055 559.973 40.2852ZM587.805 37.2617V35.2461L595.082 35.2344V41.6094C593.965 42.5 592.813 43.1719 591.625 43.625C590.438 44.0703 589.219 44.293 587.969 44.293C586.282 44.293 584.746 43.9336 583.364 43.2148C581.989 42.4883 580.95 41.4414 580.246 40.0742C579.543 38.707 579.192 37.1797 579.192 35.4922C579.192 33.8203 579.539 32.2617 580.235 30.8164C580.938 29.3633 581.946 28.2852 583.258 27.582C584.571 26.8789 586.082 26.5273 587.793 26.5273C589.036 26.5273 590.157 26.7305 591.157 27.1367C592.164 27.5352 592.953 28.0938 593.524 28.8125C594.094 29.5312 594.528 30.4688 594.825 31.625L592.774 32.1875C592.516 31.3125 592.196 30.625 591.813 30.125C591.43 29.625 590.883 29.2266 590.172 28.9297C589.461 28.625 588.672 28.4727 587.805 28.4727C586.766 28.4727 585.868 28.6328 585.11 28.9531C584.352 29.2656 583.739 29.6797 583.27 30.1953C582.809 30.7109 582.45 31.2773 582.192 31.8945C581.754 32.957 581.536 34.1094 581.536 35.3516C581.536 36.8828 581.797 38.1641 582.321 39.1953C582.852 40.2266 583.621 40.9922 584.629 41.4922C585.637 41.9922 586.707 42.2422 587.84 42.2422C588.825 42.2422 589.786 42.0547 590.723 41.6797C591.661 41.2969 592.371 40.8906 592.856 40.4609V37.2617H587.805ZM606.696 39.9922L608.875 40.2617C608.532 41.5352 607.895 42.5234 606.965 43.2266C606.036 43.9297 604.848 44.2812 603.403 44.2812C601.582 44.2812 600.137 43.7227 599.067 42.6055C598.004 41.4805 597.473 39.9062 597.473 37.8828C597.473 35.7891 598.012 34.1641 599.09 33.0078C600.168 31.8516 601.567 31.2734 603.286 31.2734C604.95 31.2734 606.309 31.8398 607.364 32.9727C608.418 34.1055 608.946 35.6992 608.946 37.7539C608.946 37.8789 608.942 38.0664 608.934 38.3164H599.653C599.731 39.6836 600.118 40.7305 600.813 41.457C601.508 42.1836 602.375 42.5469 603.414 42.5469C604.188 42.5469 604.848 42.3438 605.395 41.9375C605.942 41.5312 606.375 40.8828 606.696 39.9922ZM599.77 36.582H606.719C606.625 35.5352 606.36 34.75 605.922 34.2266C605.25 33.4141 604.379 33.0078 603.309 33.0078C602.34 33.0078 601.524 33.332 600.86 33.9805C600.203 34.6289 599.84 35.4961 599.77 36.582ZM610.75 37.7773C610.75 35.4727 611.391 33.7656 612.672 32.6562C613.743 31.7344 615.047 31.2734 616.586 31.2734C618.297 31.2734 619.696 31.8359 620.782 32.9609C621.868 34.0781 622.411 35.625 622.411 37.6016C622.411 39.2031 622.168 40.4648 621.684 41.3867C621.207 42.3008 620.508 43.0117 619.586 43.5195C618.672 44.0273 617.672 44.2812 616.586 44.2812C614.844 44.2812 613.434 43.7227 612.356 42.6055C611.286 41.4883 610.75 39.8789 610.75 37.7773ZM612.918 37.7773C612.918 39.3711 613.266 40.5664 613.961 41.3633C614.657 42.1523 615.532 42.5469 616.586 42.5469C617.633 42.5469 618.504 42.1484 619.2 41.3516C619.895 40.5547 620.243 39.3398 620.243 37.707C620.243 36.168 619.891 35.0039 619.188 34.2148C618.493 33.418 617.625 33.0195 616.586 33.0195C615.532 33.0195 614.657 33.4141 613.961 34.2031C613.266 34.9922 612.918 36.1836 612.918 37.7773ZM624.871 44V31.5547H626.77V33.4414C627.254 32.5586 627.7 31.9766 628.106 31.6953C628.52 31.4141 628.973 31.2734 629.465 31.2734C630.176 31.2734 630.899 31.5 631.633 31.9531L630.907 33.9102C630.391 33.6055 629.875 33.4531 629.36 33.4531C628.899 33.4531 628.485 33.5938 628.118 33.875C627.75 34.1484 627.489 34.5312 627.332 35.0234C627.098 35.7734 626.981 36.5938 626.981 37.4844V44H624.871ZM632.864 44V31.5547H634.762V33.4414C635.246 32.5586 635.692 31.9766 636.098 31.6953C636.512 31.4141 636.965 31.2734 637.457 31.2734C638.168 31.2734 638.891 31.5 639.625 31.9531L638.899 33.9102C638.383 33.6055 637.868 33.4531 637.352 33.4531C636.891 33.4531 636.477 33.5938 636.11 33.875C635.743 34.1484 635.481 34.5312 635.325 35.0234C635.09 35.7734 634.973 36.5938 634.973 37.4844V44H632.864ZM649.399 39.9922L651.578 40.2617C651.235 41.5352 650.598 42.5234 649.668 43.2266C648.739 43.9297 647.551 44.2812 646.106 44.2812C644.286 44.2812 642.84 43.7227 641.77 42.6055C640.707 41.4805 640.176 39.9062 640.176 37.8828C640.176 35.7891 640.715 34.1641 641.793 33.0078C642.871 31.8516 644.27 31.2734 645.989 31.2734C647.653 31.2734 649.012 31.8398 650.067 32.9727C651.121 34.1055 651.649 35.6992 651.649 37.7539C651.649 37.8789 651.645 38.0664 651.637 38.3164H642.356C642.434 39.6836 642.821 40.7305 643.516 41.457C644.211 42.1836 645.078 42.5469 646.118 42.5469C646.891 42.5469 647.551 42.3438 648.098 41.9375C648.645 41.5312 649.078 40.8828 649.399 39.9922ZM642.473 36.582H649.422C649.328 35.5352 649.063 34.75 648.625 34.2266C647.953 33.4141 647.082 33.0078 646.012 33.0078C645.043 33.0078 644.227 33.332 643.563 33.9805C642.907 34.6289 642.543 35.4961 642.473 36.582ZM654.743 44V33.1953H652.879V31.5547H654.743V30.2305C654.743 29.3945 654.817 28.7734 654.965 28.3672C655.168 27.8203 655.524 27.3789 656.032 27.043C656.547 26.6992 657.266 26.5273 658.188 26.5273C658.782 26.5273 659.438 26.5977 660.157 26.7383L659.84 28.5781C659.403 28.5 658.989 28.4609 658.598 28.4609C657.957 28.4609 657.504 28.5977 657.239 28.8711C656.973 29.1445 656.84 29.6562 656.84 30.4062V31.5547H659.266V33.1953H656.84V44H654.743ZM669.438 39.9922L671.618 40.2617C671.274 41.5352 670.637 42.5234 669.707 43.2266C668.778 43.9297 667.59 44.2812 666.145 44.2812C664.325 44.2812 662.879 43.7227 661.809 42.6055C660.746 41.4805 660.215 39.9062 660.215 37.8828C660.215 35.7891 660.754 34.1641 661.832 33.0078C662.911 31.8516 664.309 31.2734 666.028 31.2734C667.692 31.2734 669.051 31.8398 670.106 32.9727C671.161 34.1055 671.688 35.6992 671.688 37.7539C671.688 37.8789 671.684 38.0664 671.676 38.3164H662.395C662.473 39.6836 662.86 40.7305 663.555 41.457C664.25 42.1836 665.118 42.5469 666.157 42.5469C666.93 42.5469 667.59 42.3438 668.137 41.9375C668.684 41.5312 669.118 40.8828 669.438 39.9922ZM662.512 36.582H669.461C669.368 35.5352 669.102 34.75 668.664 34.2266C667.993 33.4141 667.121 33.0078 666.051 33.0078C665.082 33.0078 664.266 33.332 663.602 33.9805C662.946 34.6289 662.582 35.4961 662.512 36.582ZM674.254 44V31.5547H676.153V33.4414C676.637 32.5586 677.082 31.9766 677.489 31.6953C677.903 31.4141 678.356 31.2734 678.848 31.2734C679.559 31.2734 680.282 31.5 681.016 31.9531L680.289 33.9102C679.774 33.6055 679.258 33.4531 678.743 33.4531C678.282 33.4531 677.868 33.5938 677.5 33.875C677.133 34.1484 676.871 34.5312 676.715 35.0234C676.481 35.7734 676.364 36.5938 676.364 37.4844V44H674.254ZM690.789 39.9922L692.969 40.2617C692.625 41.5352 691.989 42.5234 691.059 43.2266C690.129 43.9297 688.942 44.2812 687.496 44.2812C685.676 44.2812 684.231 43.7227 683.161 42.6055C682.098 41.4805 681.567 39.9062 681.567 37.8828C681.567 35.7891 682.106 34.1641 683.184 33.0078C684.262 31.8516 685.661 31.2734 687.379 31.2734C689.043 31.2734 690.403 31.8398 691.457 32.9727C692.512 34.1055 693.039 35.6992 693.039 37.7539C693.039 37.8789 693.036 38.0664 693.028 38.3164H683.746C683.825 39.6836 684.211 40.7305 684.907 41.457C685.602 42.1836 686.469 42.5469 687.508 42.5469C688.282 42.5469 688.942 42.3438 689.489 41.9375C690.036 41.5312 690.469 40.8828 690.789 39.9922ZM683.864 36.582H690.813C690.719 35.5352 690.453 34.75 690.016 34.2266C689.344 33.4141 688.473 33.0078 687.403 33.0078C686.434 33.0078 685.618 33.332 684.953 33.9805C684.297 34.6289 683.934 35.4961 683.864 36.582ZM695.629 44V31.5547H697.528V33.3242C698.442 31.957 699.762 31.2734 701.489 31.2734C702.239 31.2734 702.926 31.4102 703.551 31.6836C704.184 31.9492 704.657 32.3008 704.969 32.7383C705.282 33.1758 705.5 33.6953 705.625 34.2969C705.703 34.6875 705.743 35.3711 705.743 36.3477V44H703.633V36.4297C703.633 35.5703 703.551 34.9297 703.387 34.5078C703.223 34.0781 702.93 33.7383 702.508 33.4883C702.094 33.2305 701.606 33.1016 701.043 33.1016C700.145 33.1016 699.368 33.3867 698.711 33.957C698.063 34.5273 697.739 35.6094 697.739 37.2031V44H695.629ZM717.11 39.4414L719.184 39.7109C718.957 41.1406 718.375 42.2617 717.438 43.0742C716.508 43.8789 715.364 44.2812 714.004 44.2812C712.301 44.2812 710.93 43.7266 709.891 42.6172C708.86 41.5 708.344 39.9023 708.344 37.8242C708.344 36.4805 708.567 35.3047 709.012 34.2969C709.457 33.2891 710.133 32.5352 711.039 32.0352C711.953 31.5273 712.946 31.2734 714.016 31.2734C715.368 31.2734 716.473 31.6172 717.332 32.3047C718.192 32.9844 718.743 33.9531 718.985 35.2109L716.934 35.5273C716.739 34.6914 716.391 34.0625 715.891 33.6406C715.399 33.2188 714.801 33.0078 714.098 33.0078C713.036 33.0078 712.172 33.3906 711.508 34.1562C710.844 34.9141 710.512 36.1172 710.512 37.7656C710.512 39.4375 710.832 40.6523 711.473 41.4102C712.114 42.168 712.95 42.5469 713.981 42.5469C714.809 42.5469 715.5 42.293 716.055 41.7852C716.61 41.2773 716.961 40.4961 717.11 39.4414ZM721 29.2461V26.8203H723.11V29.2461H721ZM721 44V31.5547H723.11V44H721ZM734.453 42.4648C733.672 43.1289 732.918 43.5977 732.192 43.8711C731.473 44.1445 730.7 44.2812 729.871 44.2812C728.504 44.2812 727.453 43.9492 726.719 43.2852C725.985 42.6133 725.618 41.7578 725.618 40.7188C725.618 40.1094 725.754 39.5547 726.028 39.0547C726.309 38.5469 726.672 38.1406 727.118 37.8359C727.571 37.5312 728.078 37.3008 728.641 37.1445C729.055 37.0352 729.68 36.9297 730.516 36.8281C732.219 36.625 733.473 36.3828 734.278 36.1016C734.286 35.8125 734.289 35.6289 734.289 35.5508C734.289 34.6914 734.09 34.0859 733.692 33.7344C733.153 33.2578 732.352 33.0195 731.289 33.0195C730.297 33.0195 729.563 33.1953 729.086 33.5469C728.618 33.8906 728.27 34.5039 728.043 35.3867L725.981 35.1055C726.168 34.2227 726.477 33.5117 726.907 32.9727C727.336 32.4258 727.957 32.0078 728.77 31.7188C729.582 31.4219 730.524 31.2734 731.594 31.2734C732.657 31.2734 733.52 31.3984 734.184 31.6484C734.848 31.8984 735.336 32.2148 735.649 32.5977C735.961 32.9727 736.18 33.4492 736.305 34.0273C736.375 34.3867 736.411 35.0352 736.411 35.9727V38.7852C736.411 40.7461 736.453 41.9883 736.539 42.5117C736.633 43.0273 736.813 43.5234 737.078 44H734.875C734.657 43.5625 734.516 43.0508 734.453 42.4648ZM734.278 37.7539C733.512 38.0664 732.364 38.332 730.832 38.5508C729.965 38.6758 729.352 38.8164 728.993 38.9727C728.633 39.1289 728.356 39.3594 728.161 39.6641C727.965 39.9609 727.868 40.293 727.868 40.6602C727.868 41.2227 728.078 41.6914 728.5 42.0664C728.93 42.4414 729.555 42.6289 730.375 42.6289C731.188 42.6289 731.911 42.4531 732.543 42.1016C733.176 41.7422 733.641 41.2539 733.938 40.6367C734.164 40.1602 734.278 39.457 734.278 38.5273V37.7539ZM747.766 44V42.4297C746.977 43.6641 745.817 44.2812 744.286 44.2812C743.293 44.2812 742.379 44.0078 741.543 43.4609C740.715 42.9141 740.071 42.1523 739.61 41.1758C739.157 40.1914 738.93 39.0625 738.93 37.7891C738.93 36.5469 739.137 35.4219 739.551 34.4141C739.965 33.3984 740.586 32.6211 741.414 32.082C742.243 31.543 743.168 31.2734 744.192 31.2734C744.942 31.2734 745.61 31.4336 746.196 31.7539C746.782 32.0664 747.258 32.4766 747.625 32.9844V26.8203H749.723V44H747.766ZM741.098 37.7891C741.098 39.3828 741.434 40.5742 742.106 41.3633C742.778 42.1523 743.571 42.5469 744.485 42.5469C745.407 42.5469 746.188 42.1719 746.828 41.4219C747.477 40.6641 747.801 39.5117 747.801 37.9648C747.801 36.2617 747.473 35.0117 746.817 34.2148C746.161 33.418 745.352 33.0195 744.391 33.0195C743.453 33.0195 742.668 33.4023 742.036 34.168C741.411 34.9336 741.098 36.1406 741.098 37.7891ZM752.266 37.7773C752.266 35.4727 752.907 33.7656 754.188 32.6562C755.258 31.7344 756.563 31.2734 758.102 31.2734C759.813 31.2734 761.211 31.8359 762.297 32.9609C763.383 34.0781 763.926 35.625 763.926 37.6016C763.926 39.2031 763.684 40.4648 763.2 41.3867C762.723 42.3008 762.024 43.0117 761.102 43.5195C760.188 44.0273 759.188 44.2812 758.102 44.2812C756.36 44.2812 754.95 43.7227 753.871 42.6055C752.801 41.4883 752.266 39.8789 752.266 37.7773ZM754.434 37.7773C754.434 39.3711 754.782 40.5664 755.477 41.3633C756.172 42.1523 757.047 42.5469 758.102 42.5469C759.149 42.5469 760.02 42.1484 760.715 41.3516C761.411 40.5547 761.758 39.3398 761.758 37.707C761.758 36.168 761.407 35.0039 760.703 34.2148C760.008 33.418 759.141 33.0195 758.102 33.0195C757.047 33.0195 756.172 33.4141 755.477 34.2031C754.782 34.9922 754.434 36.1836 754.434 37.7773ZM765.567 40.2852L767.653 39.957C767.77 40.793 768.094 41.4336 768.625 41.8789C769.164 42.3242 769.914 42.5469 770.875 42.5469C771.844 42.5469 772.563 42.3516 773.032 41.9609C773.5 41.5625 773.735 41.0977 773.735 40.5664C773.735 40.0898 773.528 39.7148 773.114 39.4414C772.825 39.2539 772.106 39.0156 770.957 38.7266C769.411 38.3359 768.336 38 767.735 37.7188C767.141 37.4297 766.688 37.0352 766.375 36.5352C766.071 36.0273 765.918 35.4688 765.918 34.8594C765.918 34.3047 766.043 33.793 766.293 33.3242C766.551 32.8477 766.899 32.4531 767.336 32.1406C767.664 31.8984 768.11 31.6953 768.672 31.5312C769.243 31.3594 769.852 31.2734 770.5 31.2734C771.477 31.2734 772.332 31.4141 773.067 31.6953C773.809 31.9766 774.356 32.3594 774.707 32.8438C775.059 33.3203 775.301 33.9609 775.434 34.7656L773.371 35.0469C773.278 34.4062 773.004 33.9062 772.551 33.5469C772.106 33.1875 771.473 33.0078 770.653 33.0078C769.684 33.0078 768.993 33.168 768.578 33.4883C768.164 33.8086 767.957 34.1836 767.957 34.6133C767.957 34.8867 768.043 35.1328 768.215 35.3516C768.387 35.5781 768.657 35.7656 769.024 35.9141C769.235 35.9922 769.856 36.1719 770.887 36.4531C772.379 36.8516 773.418 37.1797 774.004 37.4375C774.598 37.6875 775.063 38.0547 775.399 38.5391C775.735 39.0234 775.903 39.625 775.903 40.3438C775.903 41.0469 775.696 41.7109 775.282 42.3359C774.875 42.9531 774.286 43.4336 773.512 43.7773C772.739 44.1133 771.864 44.2812 770.887 44.2812C769.27 44.2812 768.036 43.9453 767.184 43.2734C766.34 42.6016 765.801 41.6055 765.567 40.2852ZM793.399 37.2617V35.2461L800.676 35.2344V41.6094C799.559 42.5 798.407 43.1719 797.219 43.625C796.032 44.0703 794.813 44.293 793.563 44.293C791.875 44.293 790.34 43.9336 788.957 43.2148C787.582 42.4883 786.543 41.4414 785.84 40.0742C785.137 38.707 784.786 37.1797 784.786 35.4922C784.786 33.8203 785.133 32.2617 785.828 30.8164C786.532 29.3633 787.539 28.2852 788.852 27.582C790.164 26.8789 791.676 26.5273 793.387 26.5273C794.629 26.5273 795.75 26.7305 796.75 27.1367C797.758 27.5352 798.547 28.0938 799.118 28.8125C799.688 29.5312 800.121 30.4688 800.418 31.625L798.368 32.1875C798.11 31.3125 797.789 30.625 797.407 30.125C797.024 29.625 796.477 29.2266 795.766 28.9297C795.055 28.625 794.266 28.4727 793.399 28.4727C792.36 28.4727 791.461 28.6328 790.703 28.9531C789.946 29.2656 789.332 29.6797 788.864 30.1953C788.403 30.7109 788.043 31.2773 787.786 31.8945C787.348 32.957 787.129 34.1094 787.129 35.3516C787.129 36.8828 787.391 38.1641 787.914 39.1953C788.446 40.2266 789.215 40.9922 790.223 41.4922C791.231 41.9922 792.301 42.2422 793.434 42.2422C794.418 42.2422 795.379 42.0547 796.317 41.6797C797.254 41.2969 797.965 40.8906 798.45 40.4609V37.2617H793.399ZM812.289 39.9922L814.469 40.2617C814.125 41.5352 813.489 42.5234 812.559 43.2266C811.629 43.9297 810.442 44.2812 808.996 44.2812C807.176 44.2812 805.731 43.7227 804.661 42.6055C803.598 41.4805 803.067 39.9062 803.067 37.8828C803.067 35.7891 803.606 34.1641 804.684 33.0078C805.762 31.8516 807.161 31.2734 808.879 31.2734C810.543 31.2734 811.903 31.8398 812.957 32.9727C814.012 34.1055 814.539 35.6992 814.539 37.7539C814.539 37.8789 814.536 38.0664 814.528 38.3164H805.246C805.325 39.6836 805.711 40.7305 806.407 41.457C807.102 42.1836 807.969 42.5469 809.008 42.5469C809.782 42.5469 810.442 42.3438 810.989 41.9375C811.536 41.5312 811.969 40.8828 812.289 39.9922ZM805.364 36.582H812.313C812.219 35.5352 811.953 34.75 811.516 34.2266C810.844 33.4141 809.973 33.0078 808.903 33.0078C807.934 33.0078 807.118 33.332 806.453 33.9805C805.797 34.6289 805.434 35.4961 805.364 36.582ZM816.344 37.7773C816.344 35.4727 816.985 33.7656 818.266 32.6562C819.336 31.7344 820.641 31.2734 822.18 31.2734C823.891 31.2734 825.289 31.8359 826.375 32.9609C827.461 34.0781 828.004 35.625 828.004 37.6016C828.004 39.2031 827.762 40.4648 827.278 41.3867C826.801 42.3008 826.102 43.0117 825.18 43.5195C824.266 44.0273 823.266 44.2812 822.18 44.2812C820.438 44.2812 819.028 43.7227 817.95 42.6055C816.879 41.4883 816.344 39.8789 816.344 37.7773ZM818.512 37.7773C818.512 39.3711 818.86 40.5664 819.555 41.3633C820.25 42.1523 821.125 42.5469 822.18 42.5469C823.227 42.5469 824.098 42.1484 824.793 41.3516C825.489 40.5547 825.836 39.3398 825.836 37.707C825.836 36.168 825.485 35.0039 824.782 34.2148C824.086 33.418 823.219 33.0195 822.18 33.0195C821.125 33.0195 820.25 33.4141 819.555 34.2031C818.86 34.9922 818.512 36.1836 818.512 37.7773ZM837.438 44V26.8203H843.918C845.059 26.8203 845.93 26.875 846.532 26.9844C847.375 27.125 848.082 27.3945 848.653 27.793C849.223 28.1836 849.68 28.7344 850.024 29.4453C850.375 30.1562 850.551 30.9375 850.551 31.7891C850.551 33.25 850.086 34.4883 849.157 35.5039C848.227 36.5117 846.547 37.0156 844.118 37.0156H839.711V44H837.438ZM839.711 34.9883H844.153C845.621 34.9883 846.664 34.7148 847.282 34.168C847.899 33.6211 848.207 32.8516 848.207 31.8594C848.207 31.1406 848.024 30.5273 847.657 30.0195C847.297 29.5039 846.821 29.1641 846.227 29C845.844 28.8984 845.137 28.8477 844.106 28.8477H839.711V34.9883ZM861.696 39.9922L863.875 40.2617C863.532 41.5352 862.895 42.5234 861.965 43.2266C861.036 43.9297 859.848 44.2812 858.403 44.2812C856.582 44.2812 855.137 43.7227 854.067 42.6055C853.004 41.4805 852.473 39.9062 852.473 37.8828C852.473 35.7891 853.012 34.1641 854.09 33.0078C855.168 31.8516 856.567 31.2734 858.286 31.2734C859.95 31.2734 861.309 31.8398 862.364 32.9727C863.418 34.1055 863.946 35.6992 863.946 37.7539C863.946 37.8789 863.942 38.0664 863.934 38.3164H854.653C854.731 39.6836 855.118 40.7305 855.813 41.457C856.508 42.1836 857.375 42.5469 858.414 42.5469C859.188 42.5469 859.848 42.3438 860.395 41.9375C860.942 41.5312 861.375 40.8828 861.696 39.9922ZM854.77 36.582H861.719C861.625 35.5352 861.36 34.75 860.922 34.2266C860.25 33.4141 859.379 33.0078 858.309 33.0078C857.34 33.0078 856.524 33.332 855.86 33.9805C855.203 34.6289 854.84 35.4961 854.77 36.582ZM866.512 44V31.5547H868.411V33.4414C868.895 32.5586 869.34 31.9766 869.746 31.6953C870.161 31.4141 870.614 31.2734 871.106 31.2734C871.817 31.2734 872.539 31.5 873.274 31.9531L872.547 33.9102C872.032 33.6055 871.516 33.4531 871 33.4531C870.539 33.4531 870.125 33.5938 869.758 33.875C869.391 34.1484 869.129 34.5312 868.973 35.0234C868.739 35.7734 868.621 36.5938 868.621 37.4844V44H866.512ZM882.684 44V42.1719C881.715 43.5781 880.399 44.2812 878.735 44.2812C878 44.2812 877.313 44.1406 876.672 43.8594C876.039 43.5781 875.567 43.2266 875.254 42.8047C874.95 42.375 874.735 41.8516 874.61 41.2344C874.524 40.8203 874.481 40.1641 874.481 39.2656V31.5547H876.59V38.457C876.59 39.5586 876.633 40.3008 876.719 40.6836C876.852 41.2383 877.133 41.6758 877.563 41.9961C877.993 42.3086 878.524 42.4648 879.157 42.4648C879.789 42.4648 880.383 42.3047 880.938 41.9844C881.493 41.6562 881.883 41.2148 882.11 40.6602C882.344 40.0977 882.461 39.2852 882.461 38.2227V31.5547H884.571V44H882.684ZM878.254 30.0078L879.813 26.7266H882.578L880 30.0078H878.254Z" fill="white"/>
<rect x="231.038" y="6" width="1.00451" height="60" fill="white"/>
<path d="M66.8153 53.9587C66.9651 53.9587 67.0651 53.9587 67.0651 53.9587C67.0651 53.9587 67.0651 53.9587 67.115 53.9587C67.2149 53.9587 69.3631 53.7101 70.5621 52.3175C72.0609 50.5768 72.7103 47.5928 71.3615 46.1506C70.6621 45.4543 69.8627 45.1559 69.0634 45.3051C68.2641 45.4543 67.5646 46.0511 67.2649 46.8468C67.2149 46.996 67.2649 47.195 67.4148 47.3442C67.5646 47.4436 67.7645 47.4436 67.9144 47.2944C68.2641 46.996 68.6138 46.8468 68.8636 46.9463C69.1133 46.996 69.3132 47.2447 69.4131 47.5928C69.513 47.8912 69.4631 48.3388 69.2632 48.6372C69.2133 48.7367 69.0634 48.8859 68.8636 48.9356C68.2641 48.9854 67.3648 48.2891 66.4656 47.4934C65.5663 46.7474 64.5172 45.8522 63.3182 45.4046C61.7195 44.758 57.3732 43.8131 54.2758 46.1008H54.2258C54.1259 46.1506 52.3774 47.4934 51.9777 48.9356C51.3283 50.2785 51.2783 51.5218 51.7279 52.6657C51.3283 52.9641 51.1284 53.3619 51.1284 53.7598C51.1284 54.655 52.1775 55.401 53.5264 55.5005C53.3765 55.6994 53.3266 55.9481 53.3266 56.1967C53.3266 57.1417 54.4756 57.9374 55.9744 57.9374C57.0734 57.9374 57.9727 57.5396 58.3723 56.9428C58.772 57.5396 59.6713 57.9374 60.7703 57.9374C62.2691 57.9374 63.4181 57.1914 63.4181 56.1967C63.4181 55.9481 63.3182 55.6994 63.2183 55.5005C64.0676 55.4507 64.8669 55.1523 65.2666 54.655C65.3165 54.655 65.4164 54.6053 65.4664 54.5555C65.7162 54.2571 66.3157 54.0582 66.8153 53.9587ZM68.9635 52.5662C68.5638 52.7651 68.1641 52.9143 67.8644 53.0138H67.8144C68.0642 51.1239 66.9652 49.2838 66.5155 48.5875C67.165 49.1346 67.7645 49.5324 68.364 49.6816C68.7636 50.2287 69.1133 51.2234 68.9635 52.5662ZM65.6662 53.4614C65.5663 53.2127 65.3165 52.7154 64.9169 51.8699C64.3174 50.5769 63.0185 48.7864 60.2208 47.941C56.4739 46.7971 54.4257 47.3442 53.4765 47.8912C53.5264 47.8415 53.5764 47.742 53.6763 47.6923C53.7262 47.6923 53.7762 47.6426 53.8262 47.5928C54.1259 47.2447 54.4257 46.996 54.7254 46.7474C56.0243 46.2998 58.0226 46.1008 60.9202 46.9463C64.767 48.1399 65.916 50.925 66.2657 52.0689C66.3657 52.4667 66.4656 52.9143 66.4656 53.2625C66.4156 53.2625 66.4156 53.2625 66.3657 53.2625C66.3157 53.2625 66.2158 53.3122 66.1658 53.3619C66.0159 53.3122 65.8661 53.4117 65.6662 53.4614ZM59.8211 49.6816C59.2716 49.8308 58.772 50.0795 58.4723 50.4277C58.0226 49.9303 57.1734 49.5822 56.1742 49.5822C55.8245 49.5822 55.5247 49.6319 55.225 49.6816C56.1742 49.3335 57.4231 49.234 58.6721 49.433C59.0718 49.4827 59.4714 49.5822 59.8211 49.6816ZM56.1742 50.3779C57.2233 50.3779 58.0226 50.8753 58.0226 51.3229C58.0226 51.5715 57.8228 51.8202 57.4231 51.9694C57.3232 52.0191 57.2233 52.0689 57.1234 52.1186C56.8236 52.2181 56.5239 52.2678 56.1742 52.2678C55.1251 52.2678 54.3257 51.7705 54.3257 51.3229C54.3757 50.8753 55.1251 50.3779 56.1742 50.3779ZM57.4231 52.9143C57.5231 52.8646 57.623 52.8646 57.7229 52.8149C57.9227 52.7651 58.1226 52.7651 58.3723 52.7651C59.4714 52.7651 60.2208 53.2625 60.2208 53.7101C60.2208 54.1577 59.4714 54.655 58.3723 54.655C57.2733 54.655 56.5239 54.1577 56.5239 53.7101C56.5239 53.4117 56.8736 53.1133 57.4231 52.9143ZM58.9219 51.3229C58.9219 50.8753 59.6713 50.3779 60.7703 50.3779C60.9702 50.3779 61.12 50.3779 61.3199 50.4277C62.0693 50.5271 62.6188 50.925 62.6188 51.2731V51.3229C62.6188 51.6213 62.2691 51.9197 61.7195 52.1186C61.4198 52.2181 61.12 52.2678 60.7703 52.2678C59.6713 52.2181 58.9219 51.7207 58.9219 51.3229ZM53.3266 52.0191C53.2766 51.8699 53.2766 51.7207 53.3266 51.5218C53.3765 51.1239 53.5764 50.7758 53.8761 50.4774C53.6763 50.7261 53.5764 50.9747 53.5764 51.2731C53.5764 51.5218 53.6763 51.7705 53.7762 51.9694C53.6263 51.9694 53.4765 52.0191 53.3266 52.0191ZM63.2183 51.9694C63.2183 52.0191 63.1683 52.0191 63.2183 51.9694C63.1683 51.9694 63.1683 51.9694 63.2183 51.9694ZM51.9777 53.7101C51.9777 53.5111 52.1775 53.2625 52.4773 53.1133C52.7271 52.9641 52.9769 52.9143 53.2766 52.8646C53.4265 52.8149 53.6263 52.8149 53.7762 52.8149C54.8753 52.8149 55.6247 53.3122 55.6247 53.7598C55.6247 54.0085 55.4248 54.2074 55.2749 54.3069C54.9252 54.5555 54.3757 54.7047 53.8262 54.7047C52.7271 54.655 51.9777 54.1577 51.9777 53.7101ZM55.9744 57.0422C54.8753 57.0422 54.1259 56.5946 54.1259 56.147C54.1259 55.6994 54.9252 55.2518 55.9744 55.2518V55.2021C55.9744 55.2021 55.9744 55.2021 56.0243 55.2021C56.5739 55.2021 57.0734 55.3513 57.4231 55.5502C57.573 55.6497 57.8228 55.8486 57.8228 56.0973C57.8228 56.5946 57.0734 57.0422 55.9744 57.0422ZM60.7703 57.0422C59.6713 57.0422 58.9219 56.5449 58.9219 56.0973C58.9219 55.9481 58.9718 55.7989 59.1217 55.6497C59.4714 55.3513 60.0709 55.1523 60.7204 55.1523C61.0701 55.1523 61.3698 55.2021 61.6696 55.3015C62.2191 55.4507 62.5688 55.7989 62.5688 56.0973C62.5688 56.5449 61.8195 57.0422 60.7703 57.0422ZM64.6671 53.9587C64.4672 54.2571 63.8178 54.6053 62.9185 54.6053C62.6188 54.6053 62.319 54.5555 62.0693 54.5058C61.4698 54.3566 61.12 54.0085 61.12 53.7101C61.12 53.4117 61.4698 53.1133 62.0193 52.9143C62.319 52.8149 62.6188 52.7651 62.9685 52.7651C63.1683 52.7651 63.3682 52.7651 63.568 52.8149C64.2674 52.9641 64.767 53.3122 64.767 53.6603C64.767 53.8095 64.717 53.8593 64.6671 53.9587Z" fill="white"/>
<path d="M88.3474 44.4097V22.5766C88.3474 22.3279 88.2475 22.0793 88.0477 21.9798C87.8479 21.8306 87.5981 21.8306 87.3982 21.9798L85.1501 23.2729V15.5642C85.1501 15.3155 85.0002 15.0668 84.8004 14.9674C84.5506 14.8679 84.3008 14.8679 84.101 14.9674L73.31 21.7311C73.2101 21.7311 73.1102 21.7311 73.0103 21.7809C71.1618 22.3777 69.4133 22.6761 67.8646 22.6761C62.669 22.6761 60.9704 19.3937 60.9204 19.2445C60.8205 18.9958 60.5707 18.7969 60.3209 18.7969C60.0711 18.7969 59.8213 18.9958 59.7214 19.2445C59.6715 19.3937 57.9729 22.6263 52.7772 22.6263C51.2285 22.6263 49.48 22.3279 47.6316 21.7809C47.5816 21.7809 47.5316 21.7809 47.4817 21.7809L36.6907 14.9674C36.4909 14.8182 36.1412 14.8182 35.8914 14.9674C35.6416 15.0668 35.4418 15.3155 35.4418 15.5642V23.2231L33.2436 21.9301C33.0438 21.8306 32.6941 21.8306 32.4942 21.9301C32.3444 22.129 32.1445 22.3279 32.1445 22.5766V44.4097C32.1445 44.7081 32.1945 49.9301 36.5408 54.3564C40.4376 58.3351 46.5325 60.3244 54.6257 60.3244C54.6757 60.3244 54.7756 60.3244 54.8255 60.2747C57.873 61.1699 59.6215 61.9159 59.6215 64.3528C59.6215 64.701 59.9213 64.9994 60.271 64.9994C60.6207 64.9994 60.9204 64.701 60.9204 64.3528C60.9204 61.8662 62.669 61.1202 65.7664 60.225C65.8663 60.2747 65.9162 60.2747 66.0162 60.2747C74.1094 60.2747 80.1043 58.2853 84.0011 54.3067C88.4474 49.9301 88.3474 44.7081 88.3474 44.4097ZM50.1295 37.994C51.0787 37.6459 51.4284 35.9052 51.4284 35.9052C51.4284 35.9052 52.8272 36.8004 53.8763 36.3528C53.8763 36.7507 53.7264 37.4967 53.7264 37.4967C53.7264 37.4967 53.5766 37.994 53.8763 38.5908C54.0262 38.8892 54.1261 39.5358 54.1761 39.9336C53.6765 39.9336 53.1769 39.9336 52.6274 39.9336C51.7281 39.9336 50.9288 39.9336 50.1295 39.9834C50.0795 39.1876 50.1295 38.7898 50.1295 37.994ZM66.8654 36.6512H68.6639C68.564 37.5464 68.564 38.4914 68.8638 39.8839C68.8138 39.8839 68.8138 39.8839 68.7639 39.8839L66.6656 39.685C66.9154 38.4416 66.9654 37.5962 66.8654 36.6512ZM81.4033 39.5855C80.1543 40.8288 78.4557 41.4754 76.3575 41.4754C75.8579 39.9834 75.6081 38.5908 75.5082 37.2978L83.7013 32.772C83.7513 33.4683 83.7013 37.248 81.4033 39.5855ZM37.0404 32.772L45.1336 37.248C45.0837 38.5908 44.8339 39.9834 44.2844 41.5251C42.2361 41.5251 40.5375 40.8786 39.3385 39.6352C37.0904 37.2978 37.0404 33.4683 37.0404 32.772ZM86.9486 23.7702V37.3475L83.3516 39.3368C85.2001 36.502 85.1501 32.9212 85.1501 32.6228V24.8644L86.9486 23.7702ZM83.6014 24.0189L77.4566 27.4505C77.1069 27.0526 76.1577 25.859 74.1593 22.7755L83.6014 16.8075C83.6014 16.8572 83.6014 24.0189 83.6014 24.0189ZM67.7147 24.0189C69.2634 24.0189 71.0619 23.7702 72.8604 23.2231C74.8088 26.3066 75.9079 27.6992 76.4074 28.296C75.4582 29.788 72.8604 34.7613 74.8088 41.177C73.8096 40.3315 71.9612 39.9834 69.6631 39.9336C69.3633 38.5411 69.3633 37.5962 69.4633 36.701H72.8604C73.2101 36.701 73.1102 36.1042 73.1102 35.6068V32.4736C73.1102 30.0864 71.8613 29.9372 71.8613 29.9372C71.8613 29.9372 71.0619 29.8377 70.6623 28.6938C70.2626 27.5997 69.6131 26.6548 68.614 26.5553C67.6648 26.4558 66.0661 27.2516 64.8172 27.8981C64.0678 28.296 64.0178 28.8928 63.9179 29.6885C63.6681 31.6281 62.9187 31.5287 62.9187 31.5287C62.569 31.5287 62.2693 31.9265 62.2693 32.4239V35.5571C62.2693 36.0544 62.569 36.6512 62.9187 36.6512H66.1161C66.216 37.5464 66.0162 38.4416 65.6664 39.8839C63.4183 39.9834 61.7198 40.3812 60.5707 41.2765V21.383C61.8197 22.5269 64.0178 24.0189 67.7147 24.0189ZM59.2218 21.8803V40.9283C58.3226 40.3315 56.8738 40.0331 55.0753 39.9336C54.8755 38.9887 54.9254 36.7507 55.1752 36.1042C56.624 35.8058 56.674 34.3137 56.7739 33.0704C56.8239 32.1752 56.4741 28.9425 56.4741 28.9425C56.624 28.843 57.2235 28.6938 57.3734 28.6441C57.5732 28.6441 57.7231 28.5446 57.823 28.3457C57.873 28.097 57.9729 27.7489 57.873 27.6494C57.7731 27.5002 57.0736 27.4505 56.9238 27.2018C56.5741 26.8537 56.2743 26.605 55.9246 26.6548C55.475 26.7045 55.0753 26.6548 54.8255 27.1521C54.4259 26.8537 54.0262 27.2516 53.5766 27.1024C53.5766 27.1024 53.4767 28.5944 55.0254 28.4452L55.1752 32.3741C55.1752 32.3741 55.2752 33.1699 54.1761 32.9709C53.3268 32.8217 51.3285 32.026 50.3793 32.3244C49.6299 32.5233 48.8805 32.9212 48.3809 34.4132C47.9313 35.955 48.6807 35.4079 48.6807 35.4079L49.48 34.8608C49.48 34.8608 50.0295 36.2036 49.3801 36.9496C48.8805 37.5464 49.0803 37.994 49.0803 37.994C49.0803 37.994 49.2802 39.3368 49.2802 40.0331C47.7814 40.1823 46.5824 40.4807 45.8331 41.0775C47.7315 34.7116 45.1336 29.788 44.1844 28.296C44.734 27.6992 45.7331 26.3066 47.7315 23.2231C49.53 23.7702 51.2285 24.0189 52.7772 24.0189C55.9246 24.0189 57.9229 22.9247 59.2218 21.8803ZM37.0404 16.8572L46.3826 22.7755C44.4342 25.8093 43.535 27.0029 43.1353 27.4505L37.0404 24.0189V16.8572ZM35.4917 24.8644V32.6228C35.4917 32.9709 35.3918 36.502 37.2403 39.3368L33.5933 37.3475V23.7702L35.4917 24.8644ZM33.993 46.5979L42.9854 51.5216C43.7348 53.7596 45.4334 55.55 47.8813 57.3901C48.5308 57.8875 49.2802 58.3351 50.0295 58.6832C44.6341 58.0367 40.4875 56.296 37.6399 53.4115C35.3419 51.0242 34.3427 48.3884 33.993 46.5979ZM60.3209 61.8662C59.2218 60.1752 56.9737 59.5287 54.6257 58.8821C52.5774 58.2853 50.4292 57.6388 48.6807 56.3457C44.2344 52.9141 42.5858 50.0793 44.9838 43.2658H75.6081C78.0561 50.0793 76.4074 52.9141 71.9112 56.3457C70.1627 57.6885 68.0644 58.2853 65.9662 58.8821C63.6681 59.479 61.42 60.1255 60.3209 61.8662ZM83.1518 53.3617C80.2542 56.296 76.0577 58.0864 70.6123 58.6832C71.3617 58.3351 72.111 57.9372 72.7605 57.3901C75.1585 55.55 76.8571 53.8093 77.6064 51.5713C77.6564 51.5713 77.7064 51.5216 77.7563 51.5216L86.7488 46.5979C86.3991 48.3884 85.4499 51.0242 83.1518 53.3617Z" fill="white"/>
<path d="M60.2208 18.3499C64.3173 18.3002 67.5646 16.2611 67.5646 13.675C67.5646 11.0888 64.3173 9 60.2208 9C56.1242 9 52.9269 11.0391 52.9269 13.6252C52.9269 16.2611 56.1242 18.3002 60.2208 18.3499ZM60.2208 10.7407C62.319 10.7407 63.8677 11.5861 63.8677 12.6306C63.8677 13.4263 63.0184 14.1226 61.7195 14.421C60.4706 14.8188 60.9202 15.2664 60.2707 15.6643C59.6213 15.2664 60.1209 14.8188 58.8219 14.421C57.4731 14.1226 56.6238 13.4263 56.6238 12.6306C56.6238 11.5861 58.1725 10.7407 60.2208 10.7407Z" fill="white"/>
<path d="M126.998 29.9535V42.9377C126.998 48.3179 124.26 51.0439 118.711 51.0439C117.198 51.0439 115.829 50.8287 114.532 50.47C113.235 50.1113 112.082 49.5374 111.217 48.8918L112.802 46.1658C113.451 46.7397 114.316 47.1701 115.325 47.4571C116.333 47.8158 117.414 47.9592 118.495 47.9592C120.153 47.9592 121.45 47.6005 122.242 46.8115C123.035 46.0224 123.395 44.8746 123.395 43.2964V42.579C122.747 43.2247 122.026 43.7268 121.161 44.0855C120.297 44.4442 119.288 44.5876 118.279 44.5876C116.838 44.5876 115.469 44.3007 114.316 43.6551C113.163 43.0094 112.226 42.1486 111.505 41.0008C110.857 39.8531 110.497 38.5618 110.497 37.1271C110.497 35.6924 110.857 34.4011 111.505 33.2533C112.226 32.1056 113.163 31.2447 114.316 30.6708C115.541 30.0252 116.838 29.7383 118.279 29.7383C119.36 29.7383 120.369 29.9535 121.306 30.3122C122.242 30.6708 122.963 31.2447 123.611 31.9621V29.9535H126.998ZM118.783 41.5747C120.153 41.5747 121.233 41.1443 122.098 40.3552C122.963 39.5661 123.395 38.4901 123.395 37.1988C123.395 35.9076 122.963 34.9033 122.098 34.0424C121.233 33.2533 120.153 32.8229 118.783 32.8229C117.414 32.8229 116.261 33.2533 115.397 34.0424C114.532 34.8315 114.1 35.9076 114.1 37.1988C114.1 38.4901 114.532 39.5661 115.397 40.3552C116.261 41.1443 117.414 41.5747 118.783 41.5747Z" fill="white"/>
<path d="M138.6 45.5207C137.015 45.5207 135.646 45.1621 134.421 44.5164C133.196 43.8708 132.187 42.9382 131.466 41.7187C130.746 40.4992 130.457 39.1362 130.457 37.6298C130.457 36.1233 130.818 34.7603 131.466 33.6126C132.187 32.393 133.124 31.5322 134.421 30.8149C135.646 30.1692 137.087 29.8105 138.6 29.8105C140.185 29.8105 141.555 30.1692 142.852 30.8149C144.077 31.4605 145.086 32.393 145.734 33.6126C146.455 34.8321 146.815 36.1233 146.815 37.6298C146.815 39.1362 146.455 40.4992 145.734 41.7187C145.013 42.9382 144.077 43.7991 142.852 44.5164C141.627 45.1621 140.185 45.5207 138.6 45.5207ZM138.6 42.4361C139.897 42.4361 141.05 42.0057 141.915 41.1448C142.78 40.284 143.212 39.1362 143.212 37.7015C143.212 36.2668 142.78 35.119 141.915 34.2582C141.05 33.3973 139.969 32.9669 138.6 32.9669C137.231 32.9669 136.15 33.3973 135.285 34.2582C134.421 35.119 133.988 36.2668 133.988 37.7015C133.988 39.1362 134.421 40.284 135.285 41.1448C136.222 42.0057 137.303 42.4361 138.6 42.4361Z" fill="white"/>
<path d="M158.777 29.8106C160.29 29.8106 161.587 30.1693 162.812 30.8149C164.037 31.4605 164.902 32.3931 165.623 33.5409C166.343 34.6887 166.632 36.1234 166.632 37.6298C166.632 39.208 166.271 40.571 165.623 41.7905C164.974 43.01 164.037 43.8709 162.812 44.5165C161.66 45.1621 160.29 45.5208 158.777 45.5208C157.696 45.5208 156.759 45.3056 155.895 44.9469C155.03 44.5882 154.309 44.0143 153.733 43.297V45.3056H150.274V24H153.877V31.8192C154.526 31.1736 155.246 30.6714 156.039 30.3128C156.904 29.9541 157.768 29.8106 158.777 29.8106ZM158.417 42.4362C159.714 42.4362 160.795 42.0057 161.66 41.1449C162.524 40.2841 162.957 39.1363 162.957 37.7016C162.957 36.2669 162.524 35.1191 161.66 34.2582C160.795 33.3974 159.714 32.967 158.417 32.967C157.552 32.967 156.759 33.1822 156.111 33.5409C155.39 33.8996 154.886 34.4735 154.454 35.1908C154.021 35.9082 153.877 36.769 153.877 37.7016C153.877 38.6341 154.093 39.495 154.454 40.2123C154.886 40.9297 155.39 41.5036 156.111 41.934C156.759 42.2209 157.552 42.4362 158.417 42.4362Z" fill="white"/>
<path d="M170.882 45.5197C170.234 45.5197 169.657 45.3045 169.225 44.8741C168.793 44.4437 168.504 43.8698 168.504 43.1524C168.504 42.4351 168.721 41.8612 169.153 41.4308C169.585 41.0004 170.162 40.7852 170.882 40.7852C171.531 40.7852 172.107 41.0004 172.54 41.4308C172.972 41.8612 173.26 42.4351 173.26 43.1524C173.26 43.8698 173.044 44.4437 172.54 44.8741C172.107 45.3045 171.531 45.5197 170.882 45.5197Z" fill="white"/>
<path d="M185.295 29.8105C186.808 29.8105 188.105 30.1692 189.33 30.8149C190.555 31.4605 191.42 32.393 192.14 33.5408C192.789 34.7603 193.149 36.1233 193.149 37.6298C193.149 39.208 192.789 40.5709 192.14 41.7905C191.492 43.01 190.555 43.8708 189.33 44.5164C188.177 45.1621 186.808 45.5207 185.295 45.5207C183.205 45.5207 181.548 44.8034 180.395 43.4404V50.9009H176.792V29.954H180.25V31.9626C180.827 31.2453 181.548 30.6714 182.412 30.3127C183.205 30.0258 184.214 29.8105 185.295 29.8105ZM184.862 42.4361C186.159 42.4361 187.24 42.0057 188.105 41.1448C188.97 40.284 189.402 39.1362 189.402 37.7015C189.402 36.2668 188.97 35.119 188.105 34.2582C187.24 33.3973 186.159 32.9669 184.862 32.9669C183.998 32.9669 183.205 33.1821 182.556 33.5408C181.836 33.8995 181.331 34.4734 180.899 35.1907C180.467 35.9081 180.323 36.7689 180.323 37.7015C180.323 38.6341 180.539 39.4949 180.899 40.2123C181.331 40.9296 181.836 41.5035 182.556 41.9339C183.205 42.2209 183.998 42.4361 184.862 42.4361Z" fill="white"/>
<path d="M210.948 37.702C210.948 37.9172 210.948 38.2759 210.876 38.7781H198.77C198.986 39.9259 199.563 40.7867 200.428 41.504C201.364 42.1497 202.445 42.5084 203.742 42.5084C205.4 42.5084 206.841 41.9345 207.922 40.8584L209.867 43.0822C209.147 43.8713 208.282 44.517 207.273 44.9474C206.192 45.3778 205.039 45.593 203.67 45.593C202.013 45.593 200.5 45.2343 199.203 44.5887C197.906 43.9431 196.897 43.0105 196.176 41.791C195.455 40.5715 195.167 39.2085 195.167 37.702C195.167 36.1956 195.528 34.9043 196.176 33.6848C196.897 32.4653 197.833 31.5327 199.058 30.8871C200.283 30.2415 201.653 29.8828 203.166 29.8828C204.679 29.8828 205.976 30.2415 207.201 30.8871C208.426 31.5327 209.291 32.4653 209.94 33.6848C210.588 34.7609 210.948 36.1956 210.948 37.702ZM203.166 32.6805C202.013 32.6805 201.004 33.0392 200.211 33.6848C199.419 34.3304 198.914 35.263 198.77 36.4108H207.489C207.345 35.3347 206.841 34.4022 206.048 33.6848C205.328 33.0392 204.319 32.6805 203.166 32.6805Z" fill="white"/>
</svg>
