<?xml version="1.0" encoding="iso-8859-1"?>
<!-- Generator: Adobe Illustrator 19.0.0, SVG Export Plug-In . SVG Version: 6.00 Build 0)  -->
<svg version="1.1" id="Layer_1" xmlns="http://www.w3.org/2000/svg" xmlns:xlink="http://www.w3.org/1999/xlink" x="0px" y="0px"
	 viewBox="0 0 455 455" style="enable-background:new 0 0 455 455;" xml:space="preserve">
<g>
	<polygon points="49.75,213.194 49.75,343.585 115.048,278.493 	"/>
	<path d="M49.75,140.432v30.337l86.545,86.545l54.575-54.403v-61.486c-18.064,17.737-42.804,28.696-70.06,28.696
		C93.048,170.12,67.895,158.752,49.75,140.432z"/>
	<polygon points="368.707,0 273.192,95.703 405.25,227.761 405.25,0 	"/>
	<path d="M119.809,455c38.693,0,71.06-31.367,71.06-70.06v-27.396L97.174,451.24C104.277,453.665,111.885,455,119.809,455z"/>
	<path d="M70.904,435.084l119.966-119.966V245.27L49.775,385.919C50.04,405.189,58.078,422.573,70.904,435.084z"/>
	<polygon points="220.869,326.187 340.712,205.649 252,116.937 220.869,148.128 	"/>
	<polygon points="220.869,368.737 220.869,384.94 405.25,384.94 405.25,270.187 361.925,226.862 	"/>
	<path d="M220.869,85.06v20.6L326.322,0H192.174c17.737,18.064,28.695,42.804,28.695,70.06c0,5.097-0.386,10.105-1.124,15H220.869z"
		/>
	<circle cx="120.809" cy="70.06" r="70.06"/>
</g>
<g>
</g>
<g>
</g>
<g>
</g>
<g>
</g>
<g>
</g>
<g>
</g>
<g>
</g>
<g>
</g>
<g>
</g>
<g>
</g>
<g>
</g>
<g>
</g>
<g>
</g>
<g>
</g>
<g>
</g>
</svg>
