<?xml version="1.0" encoding="UTF-8" standalone="no"?>
<svg
   width="34.241837mm"
   height="28.722279mm"
   viewBox="0 0 34.241837 28.722278"
   version="1.1"
   id="svg8"
   xmlns="http://www.w3.org/2000/svg"
   xmlns:svg="http://www.w3.org/2000/svg"
   xmlns:rdf="http://www.w3.org/1999/02/22-rdf-syntax-ns#"
   xmlns:cc="http://creativecommons.org/ns#"
   xmlns:dc="http://purl.org/dc/elements/1.1/">
  <defs
     id="defs2" />
  <metadata
     id="metadata5">
    <rdf:RDF>
      <cc:Work
         rdf:about="">
        <dc:format>image/svg+xml</dc:format>
        <dc:type
           rdf:resource="http://purl.org/dc/dcmitype/StillImage" />
      </cc:Work>
    </rdf:RDF>
  </metadata>
  <path
     id="path44"
     style="fill:#ffffff;stroke-width:0.622141"
     d="M 16.978809,0 0.00310059,8.4713175 17.203601,16.426388 l 1.729093,-0.79065 c -0.447204,0.752283 -0.773175,1.573841 -0.965315,2.432927 L 17.242358,18.39526 10.303764,15.251782 3.3646525,12.108305 1.6820679,13.180591 0,14.25236 l 17.162777,8.070308 0.845426,-0.413411 c 0.178131,0.72299 0.451618,1.417576 0.81287,2.064473 L 17.242358,24.684798 10.303764,21.541321 3.3646525,18.397843 1.6820679,19.469613 0,20.541899 l 17.125053,8.180379 4.115511,-2.060856 c 1.323522,0.928106 2.888726,1.424627 4.491199,1.424719 4.200119,4.6e-5 7.678878,-3.349602 7.950419,-7.655347 l 0.484725,-0.242879 -0.468189,-0.269234 v -5.17e-4 -5.17e-4 -5.16e-4 -5.17e-4 -5.17e-4 -5.17e-4 -5.17e-4 -5.16e-4 -5.17e-4 -5.17e-4 -5.17e-4 -5.16e-4 -5.17e-4 -5.17e-4 -5.17e-4 -5.16e-4 -5.17e-4 -5.17e-4 -5.17e-4 -5.16e-4 -5.17e-4 -5.17e-4 -5.17e-4 -5.17e-4 -5.16e-4 -5.17e-4 -5.17e-4 -5.17e-4 -5.16e-4 -5.17e-4 -5.17e-4 -5.17e-4 -5.16e-4 c -5.1e-5,-1.762784 -0.554114,-3.478443 -1.579748,-4.891691 l 2.122868,-1.03818 C 33.22638,13.387899 32.136031,12.730922 31.120581,12.147062 l -1.438155,0.647506 C 28.91058,12.341853 28.070434,12.025008 27.19679,11.857157 l 6.893636,-3.152262 z m 8.996229,13.714591 3.521015,5.798169 -1.979201,0.0097 -0.178284,5.783476 -2.922162,0.08876 0.124463,-5.901576 -2.190395,0.03852 z" />
</svg>
