<?xml version="1.0" encoding="UTF-8" standalone="no"?>
<svg
   version="1.1"
   id="Capa_1"
   x="0px"
   y="0px"
   viewBox="0 0 157.35505 123.60075"
   xml:space="preserve"
   width="157.35506"
   height="123.60075"
   sodipodi:docname="Consultas-demarcatorias-2.svg"
   inkscape:version="1.3.2 (091e20e, 2023-11-25, custom)"
   inkscape:export-filename="Consultas-demarcatorias.png"
   inkscape:export-xdpi="96"
   inkscape:export-ydpi="96"
   xmlns:inkscape="http://www.inkscape.org/namespaces/inkscape"
   xmlns:sodipodi="http://sodipodi.sourceforge.net/DTD/sodipodi-0.dtd"
   xmlns="http://www.w3.org/2000/svg"
   xmlns:svg="http://www.w3.org/2000/svg"
   xmlns:rdf="http://www.w3.org/1999/02/22-rdf-syntax-ns#"
   xmlns:cc="http://creativecommons.org/ns#"
   xmlns:dc="http://purl.org/dc/elements/1.1/"><sodipodi:namedview
   id="namedview1"
   pagecolor="#ffffff"
   bordercolor="#000000"
   borderopacity="0.25"
   inkscape:showpageshadow="2"
   inkscape:pageopacity="0.0"
   inkscape:pagecheckerboard="0"
   inkscape:deskcolor="#d1d1d1"
   inkscape:zoom="2.4034729"
   inkscape:cx="-126.06758"
   inkscape:cy="56.584787"
   inkscape:window-width="2560"
   inkscape:window-height="1369"
   inkscape:window-x="-8"
   inkscape:window-y="-8"
   inkscape:window-maximized="1"
   inkscape:current-layer="Capa_1" /><metadata
   id="metadata53"><rdf:RDF><cc:Work
       rdf:about=""><dc:format>image/svg+xml</dc:format><dc:type
         rdf:resource="http://purl.org/dc/dcmitype/StillImage" /></cc:Work></rdf:RDF></metadata><defs
   id="defs51">
	
	
	
	
	
	
	
</defs>

<g
   id="g18"
   transform="translate(-13.316833,-5.3647933)">
</g>
<g
   id="g20"
   transform="translate(-13.316833,-5.3647933)">
</g>
<g
   id="g22"
   transform="translate(-13.316833,-5.3647933)">
</g>
<g
   id="g24"
   transform="translate(-13.316833,-5.3647933)">
</g>
<g
   id="g26"
   transform="translate(-13.316833,-5.3647933)">
</g>
<g
   id="g28"
   transform="translate(-13.316833,-5.3647933)">
</g>
<g
   id="g30"
   transform="translate(-13.316833,-5.3647933)">
</g>
<g
   id="g32"
   transform="translate(-13.316833,-5.3647933)">
</g>
<g
   id="g34"
   transform="translate(-13.316833,-5.3647933)">
</g>
<g
   id="g36"
   transform="translate(-13.316833,-5.3647933)">
</g>
<g
   id="g38"
   transform="translate(-13.316833,-5.3647933)">
</g>
<g
   id="g40"
   transform="translate(-13.316833,-5.3647933)">
</g>
<g
   id="g42"
   transform="translate(-13.316833,-5.3647933)">
</g>
<g
   id="g44"
   transform="translate(-13.316833,-5.3647933)">
</g>
<g
   id="g46"
   transform="translate(-13.316833,-5.3647933)">
</g>
<g
   id="g2"><path
     id="path2-8"
     style="fill:#26292e;fill-opacity:1;stroke-width:0.304184"
     d="M 32.064453,0 C 16.520559,0 0,4.7130157 0,13.449219 l 0.0078125,6.927734 0.01757813,0.148438 C 0.39285652,22.128353 1.3447885,23.57521 2.7421875,24.861328 1.0013711,26.515365 0,28.418929 0,30.566406 l 0.0078125,6.929688 0.01757813,0.146484 C 0.39285682,39.246406 1.3467419,40.692044 2.7441406,41.980469 1.003324,43.632773 0,45.537787 0,47.685547 l 0.0078125,6.927734 0.01757813,0.148438 c 0.36746649,1.604112 1.32135127,3.0486 2.71874997,4.33789 C 1.0033237,60.75076 0,62.653821 0,64.802734 l 0.0078125,6.929688 0.01757813,0.146484 c 1.80334287,7.861295 17.48408237,11.97461 32.04101537,11.97461 0.347589,0 0.698188,-0.02265 1.046875,-0.02734 v -11.94727 c -0.349113,0.0048 -0.691368,0.01563 -1.046875,0.01563 -15.506381,0 -24.9999997,-4.593139 -24.9999998,-7.091797 -9.713e-4,-0.60684 0.5609908,-1.329103 1.6191407,-2.083984 6.2626441,2.653613 15.0050971,4.017578 23.3789061,4.017578 0.348179,0 0.699567,-0.02064 1.048828,-0.02539 V 54.755859 c -0.352619,0.0048 -0.689696,0.02148 -1.048828,0.02148 -15.506379,0 -24.9999999,-4.591632 -24.9999999,-7.09375 0,-0.60396 0.5632647,-1.330041 1.6210938,-2.082032 6.2626441,2.653034 15.0050971,4.017579 23.3789061,4.017579 0.348469,0 0.69926,-0.01284 1.048828,-0.01758 v -11.96289 c -0.351984,0.0048 -0.690373,0.01953 -1.048828,0.01953 -15.506379,0 -24.9999999,-4.591984 -24.9999999,-7.091797 0,-0.604247 0.5629438,-1.329677 1.6210938,-2.083984 C 14.948191,31.136615 23.690644,32.5 32.064453,32.5 c 8.367717,0 17.11603,-1.360996 23.384766,-4.011719 1.052698,0.751702 1.615234,1.475608 1.615234,2.078125 0,1.831298 -5.110055,4.777724 -13.931641,6.226563 h 18.97461 c 0.656351,-0.224599 1.330477,-0.415563 2.023437,-0.564453 v -5.66211 c 0,-2.143149 -1.001898,-4.042628 -2.734375,-5.689453 1.405416,-1.292462 2.365305,-2.743115 2.734375,-4.351562 V 13.447266 C 64.130589,4.7113536 47.608028,0 32.064453,0 Z m 0,6.3574219 c 15.507342,0 25,4.5906081 25,7.0898441 0,2.500096 -9.492342,7.09375 -25,7.09375 -15.506379,0 -24.9999999,-4.593654 -24.9999999,-7.09375 0,-2.499236 9.4932999,-7.0898441 24.9999999,-7.0898441 z" /><g
     id="g1"
     transform="translate(7.3550499,2.9420212)"><path
       d="m 95.650902,110.08917 v -5.44536 h 5.630278 c -2.254784,-1.30063 -4.343523,-2.96829 -6.202473,-4.975112 -1.293434,-1.395993 -2.430538,-2.914873 -3.411313,-4.52813 H 33.1138 V 36.793295 h 88.33353 v 15.877948 c 3.197,1.077798 6.18001,2.814598 8.80299,5.152395 V 28.928544 c 0,-0.904774 -0.67965,-1.63849 -1.51775,-1.63849 H 25.82856 c -0.838106,0 -1.517758,0.733716 -1.517758,1.63849 v 74.077106 c 0,0.90477 0.679652,1.63849 1.517758,1.63849 h 33.081666 v 5.44535 l -6.535771,7.83428 c -0.401295,0.48106 -0.502681,1.17152 -0.258929,1.76268 0.243752,0.59117 0.787109,0.97228 1.386624,0.97228 h 47.55652 c 0.002,0 0.004,0 0.006,0 0.8381,0 1.51775,-0.73371 1.51775,-1.63849 0,-0.46729 -0.18122,-0.88871 -0.47172,-1.18692 z"
       id="path2"
       style="fill:#26292e;fill-opacity:1;stroke-width:0.315394" /><path
       d="M 148.91905,112.15759 131.03379,92.849632 c 2.49975,-3.835377 3.85207,-8.394638 3.85207,-13.180994 0,-6.136144 -2.2135,-11.905266 -6.23313,-16.244315 -4.01932,-4.339048 -9.36335,-6.728949 -15.04736,-6.728949 -5.6843,0 -11.02803,2.389573 -15.047354,6.728949 -4.019327,4.339049 -6.232826,10.108171 -6.232826,16.244315 0,6.136144 2.213499,11.905266 6.232826,16.244314 4.019324,4.339378 9.363354,6.728948 15.047354,6.728948 4.43338,0 8.65699,-1.45989 12.20946,-4.158157 l 17.88526,19.307967 c 0.72033,0.77795 1.66498,1.1666 2.60933,1.1666 0.94435,0 1.889,-0.38898 2.60963,-1.1666 1.44127,-1.55591 1.44127,-4.07853 0,-5.63412 z m -24.615,-20.939566 c -2.85763,3.085276 -6.65719,4.784062 -10.69837,4.784062 -4.04119,0 -7.84074,-1.699114 -10.69868,-4.784062 -2.85763,-3.084948 -4.43155,-7.186744 -4.43155,-11.549386 0,-4.362971 1.57392,-8.464438 4.43155,-11.549386 2.85794,-3.084949 6.65719,-4.784063 10.69868,-4.784063 4.04118,0 7.84074,1.699114 10.69837,4.784063 2.85764,3.085276 4.43155,7.186743 4.43155,11.549386 0,4.362642 -1.57391,8.464438 -4.43155,11.549386 z"
       id="path4"
       style="fill:#26292e;fill-opacity:1;stroke-width:0.315394" /><path
       d="m 99.156389,43.721042 h -29.14362 c -2.170066,0 -3.929497,2.122919 -3.929497,4.741308 0,2.618385 1.759431,4.741307 3.929497,4.741307 h 29.14362 c 2.170551,0 3.929501,-2.122922 3.929501,-4.741307 0,-2.618389 -1.75944,-4.741308 -3.929501,-4.741308 z"
       id="path8"
       style="fill:#26292e;fill-opacity:1;stroke-width:0.539544" /><path
       d="M 71.577074,43.721042 H 42.433455 c -2.170064,0 -3.929498,2.122919 -3.929498,4.741308 0,2.618385 1.759434,4.741307 3.929498,4.741307 h 29.143619 c 2.170555,0 3.929498,-2.122329 3.929498,-4.741307 0,-2.618389 -1.759431,-4.741308 -3.929498,-4.741308 z"
       id="path12"
       style="fill:#26292e;fill-opacity:1;stroke-width:0.539544" /><path
       d="M 76.374019,60.718797 H 43.487204 c -2.448785,0 -4.434201,2.122919 -4.434201,4.741307 0,2.618385 1.985416,4.741308 4.434201,4.741308 h 32.886815 c 2.449343,0 4.4342,-2.12233 4.4342,-4.741308 0,-2.618388 -1.98541,-4.741307 -4.4342,-4.741307 z"
       id="path12-5"
       style="fill:#26292e;fill-opacity:1;stroke-width:0.573146" /><path
       d="M 76.419555,77.188358 H 43.53274 c -2.448785,0 -4.434201,2.122919 -4.434201,4.741307 0,2.618385 1.985416,4.741308 4.434201,4.741308 h 32.886815 c 2.449343,0 4.4342,-2.12233 4.4342,-4.741308 0,-2.618388 -1.98541,-4.741307 -4.4342,-4.741307 z"
       id="path12-5-6"
       style="fill:#26292e;fill-opacity:1;stroke-width:0.573146" /></g></g></svg>
