<?xml version="1.0" encoding="UTF-8" standalone="no"?>
<!-- Generator: Adobe Illustrator 16.0.0, SVG Export Plug-In . SVG Version: 6.00 Build 0)  -->

<svg
   version="1.1"
   id="Capa_1"
   x="0px"
   y="0px"
   width="161.77339"
   height="150"
   viewBox="0 0 161.7734 150"
   xml:space="preserve"
   sodipodi:docname="download-information.svg"
   inkscape:version="1.3.2 (091e20e, 2023-11-25, custom)"
   xmlns:inkscape="http://www.inkscape.org/namespaces/inkscape"
   xmlns:sodipodi="http://sodipodi.sourceforge.net/DTD/sodipodi-0.dtd"
   xmlns="http://www.w3.org/2000/svg"
   xmlns:svg="http://www.w3.org/2000/svg"><defs
   id="defs17" /><sodipodi:namedview
   id="namedview17"
   pagecolor="#ffffff"
   bordercolor="#000000"
   borderopacity="0.25"
   inkscape:showpageshadow="2"
   inkscape:pageopacity="0.0"
   inkscape:pagecheckerboard="0"
   inkscape:deskcolor="#d1d1d1"
   inkscape:zoom="1.0465307"
   inkscape:cx="-119.44227"
   inkscape:cy="167.69695"
   inkscape:window-width="2560"
   inkscape:window-height="1369"
   inkscape:window-x="-8"
   inkscape:window-y="-8"
   inkscape:window-maximized="1"
   inkscape:current-layer="Capa_1" />
<g
   id="g2"
   transform="matrix(0.40823103,0,0,0.40823103,0,-5.8866915)"
   style="fill:#ffffff">
	<g
   id="g1"
   style="fill:#ffffff">
		<path
   d="M 321.416,107.926 C 311.303,79.098 283.865,58.42 251.584,58.42 c -7.918,0 -15.539,1.257 -22.691,3.559 C 212.232,33.53 181.35,14.42 146,14.42 c -53.02,0 -96,42.979 -96,96 0,1.761 0.051,3.51 0.145,5.247 C 20.467,130.038 0,160.441 0,195.628 0,244.666 39.753,284.42 88.792,284.42 h 3.417 l 46.598,81.076 c 5.787,10.066 16.597,16.338 28.265,16.363 h 0.014 c 11.592,0 22.405,-6.229 28.217,-16.258 l 47.071,-81.182 h 65.114 c 49.037,0 88.791,-39.754 88.791,-88.792 0.002,-44.299 -32.441,-81.019 -74.863,-87.701 z m -32.467,52.238 c -0.265,3.845 -3.357,6.887 -7.207,7.085 -2.963,0.153 -6.082,0.699 -8.74,1.214 -21.953,4.241 -41.49,15.177 -55.02,30.792 -6.035,6.968 -10.927,14.993 -14.142,23.207 -3.812,9.739 -6.362,19.292 -7.613,28.499 l 23.435,-0.036 c 0.004,0 0.008,0 0.012,0 2.724,0 5.237,1.452 6.599,3.81 1.362,2.361 1.36,5.271 -0.007,7.63 l -52.588,90.698 c -1.362,2.352 -3.874,3.797 -6.59,3.797 -0.005,0 -0.009,0 -0.014,0 -2.722,-0.006 -5.234,-1.462 -6.591,-3.82 l -52.155,-90.745 c -1.354,-2.356 -1.351,-5.258 0.011,-7.61 1.361,-2.354 3.874,-3.803 6.593,-3.803 l 26.89,-0.005 c 4.375,-13.707 9.316,-25.211 15.066,-35.082 4.407,-7.565 8.766,-13.948 13.327,-19.513 4.167,-5.084 8.861,-10.026 14.351,-15.106 4.66,-4.313 10.282,-8.471 17.187,-12.709 11.173,-6.859 23.886,-11.813 38.867,-15.144 0.108,-0.024 0.218,-0.046 0.328,-0.065 8.562,-1.513 15.763,-2.274 22.65,-2.392 0.966,-0.017 1.935,-0.026 2.906,-0.026 6.377,0 11.547,0.42 16.273,1.323 3.787,0.72 6.438,4.156 6.172,8.001 z"
   id="path1"
   style="fill:#ffffff" />
	</g>
</g>
<g
   id="g3"
   transform="translate(0,-14.42)">
</g>
<g
   id="g4"
   transform="translate(0,-14.42)">
</g>
<g
   id="g5"
   transform="translate(0,-14.42)">
</g>
<g
   id="g6"
   transform="translate(0,-14.42)">
</g>
<g
   id="g7"
   transform="translate(0,-14.42)">
</g>
<g
   id="g8"
   transform="translate(0,-14.42)">
</g>
<g
   id="g9"
   transform="translate(0,-14.42)">
</g>
<g
   id="g10"
   transform="translate(0,-14.42)">
</g>
<g
   id="g11"
   transform="translate(0,-14.42)">
</g>
<g
   id="g12"
   transform="translate(0,-14.42)">
</g>
<g
   id="g13"
   transform="translate(0,-14.42)">
</g>
<g
   id="g14"
   transform="translate(0,-14.42)">
</g>
<g
   id="g15"
   transform="translate(0,-14.42)">
</g>
<g
   id="g16"
   transform="translate(0,-14.42)">
</g>
<g
   id="g17"
   transform="translate(0,-14.42)">
</g>
</svg>
