<?xml version="1.0" encoding="iso-8859-1"?>
<!-- Generator: Adobe Illustrator 18.0.0, SVG Export Plug-In . SVG Version: 6.00 Build 0)  -->
<!DOCTYPE svg PUBLIC "-//W3C//DTD SVG 1.1//EN" "http://www.w3.org/Graphics/SVG/1.1/DTD/svg11.dtd">
<svg version="1.1" id="Capa_1" xmlns="http://www.w3.org/2000/svg" xmlns:xlink="http://www.w3.org/1999/xlink" x="0px" y="0px"
	 viewBox="0 0 297 297" style="enable-background:new 0 0 297 297;" xml:space="preserve">
<g>
	<path d="M27.713,210.724h67.91c5.5,0,10-4.5,10-10v-69.937c0-5.5-4.5-10-10-10h-67.91c-3.962,0-7.582,2.237-9.354,5.781
		L1.104,161.079c-1.472,2.943-1.472,6.409,0,9.352l17.256,34.511C20.131,208.486,23.751,210.724,27.713,210.724z"/>
	<path d="M269.288,158.958c3.961,0,7.582-2.237,9.354-5.781l17.255-34.511c1.472-2.943,1.472-6.41,0-9.353l-17.255-34.511
		c-1.772-3.544-5.393-5.781-9.354-5.781h-68.956c-5.5,0-10,4.5-10,10v69.936c0,5.5,4.5,10,10,10H269.288z"/>
	<path d="M27.713,107.191h67.91c5.5,0,10-4.5,10-10V27.255c0-5.5-4.5-10-10-10h-67.91c-3.962,0-7.582,2.238-9.354,5.782
		L1.104,57.547c-1.472,2.943-1.472,6.41,0,9.353l17.256,34.51C20.131,104.954,23.751,107.191,27.713,107.191z"/>
	<path d="M165.755,0h-34.51c-5.775,0-10.458,4.683-10.458,10.458v276.084c0,5.775,4.683,10.458,10.458,10.458h34.51
		c5.775,0,10.458-4.683,10.458-10.458V10.458C176.213,4.683,171.531,0,165.755,0z"/>
</g>
<g>
</g>
<g>
</g>
<g>
</g>
<g>
</g>
<g>
</g>
<g>
</g>
<g>
</g>
<g>
</g>
<g>
</g>
<g>
</g>
<g>
</g>
<g>
</g>
<g>
</g>
<g>
</g>
<g>
</g>
</svg>
