<?xml version="1.0" encoding="UTF-8" standalone="no"?>
<svg
   width="34.241837mm"
   height="29.298986mm"
   viewBox="0 0 34.241837 29.298986"
   version="1.1"
   id="svg8"
   xmlns="http://www.w3.org/2000/svg"
   xmlns:svg="http://www.w3.org/2000/svg"
   xmlns:rdf="http://www.w3.org/1999/02/22-rdf-syntax-ns#"
   xmlns:cc="http://creativecommons.org/ns#"
   xmlns:dc="http://purl.org/dc/elements/1.1/">
  <defs
     id="defs2" />
  <metadata
     id="metadata5">
    <rdf:RDF>
      <cc:Work
         rdf:about="">
        <dc:format>image/svg+xml</dc:format>
        <dc:type
           rdf:resource="http://purl.org/dc/dcmitype/StillImage" />
      </cc:Work>
    </rdf:RDF>
  </metadata>
  <path
     style="fill:#ffffff;stroke-width:0.622142"
     d="M 3.3646525,19.084623 1.6820679,20.156392 0,21.228678 17.162777,29.298987 34.241838,20.948075 C 33.226379,20.364216 32.13603,19.706723 31.120581,19.122863 l -6.939111,3.124358 -6.939112,3.12384 -6.938594,-3.142961 z"
     id="path110" />
  <path
     style="fill:#ffffff;stroke-width:0.622142"
     d="m 21.807454,9.4319823 c -0.06151,0.112816 -0.124577,0.224727 -0.191202,0.334863 -0.323029,0.5500327 -0.653126,1.1007987 -1.062468,1.5921507 -0.17978,0.248763 -0.364592,0.493047 -0.548804,0.738456 -0.169304,0.225554 -0.205224,0.291155 -0.38809,0.508497 -0.04529,0.05383 -0.09546,0.103816 -0.143143,0.155546 -0.318284,0.334416 -0.573495,0.722248 -0.833541,1.102258 -0.313221,0.462897 -0.644887,0.913525 -0.960148,1.37511 -0.263834,0.389481 -0.499111,0.794678 -0.738456,1.19941 -0.217799,0.382278 -0.427321,0.772047 -0.590145,1.181323 -0.128856,0.304102 -0.0286,0.06062 -0.137976,0.343648 -0.01106,0.02862 -0.02612,0.05577 -0.03462,0.08527 -0.03999,0.139045 -0.06059,0.284297 -0.07906,0.427365 -0.0049,0.06364 -0.01607,0.126866 -0.01757,0.190686 -0.0039,0.16212 0.02146,0.324231 0.03462,0.485241 0.04321,0.394998 0.07822,0.791661 0.15968,1.181324 0.02646,0.131689 0.05831,0.262716 0.08268,0.394807 0.05549,0.300759 0.08606,0.606316 0.157613,0.904338 0.111755,0.543531 0.24387,1.082556 0.36897,1.623157 l 0.31781,0.146761 16.886825,-7.721493 z m 0.70125,3.9547967 c 0.09721,-2.64e-4 0.195043,0.0077 0.293005,0.02377 0.08051,0.01927 0.330015,0.07502 0.395325,0.131775 0.0076,0.0066 -0.0105,-3.18e-4 -0.02894,-0.0083 0.2381,0.108212 0.07812,0.01754 0.327628,0.171049 0.255347,0.191126 0.455078,0.428535 0.549838,0.740524 0.01675,0.09596 0.03652,0.191447 0.05064,0.287837 0.02942,0.200857 -0.01844,0.444315 -0.06821,0.636137 -0.103945,0.268617 -0.23392,0.509845 -0.438216,0.717269 -0.06403,0.06437 0.07897,-0.10734 0.04857,-0.07183 -0.302228,0.353084 -0.177719,0.266581 -0.681095,0.51418 -0.09086,0.01414 -0.181722,0.03008 -0.272852,0.04237 -0.135654,0.01834 -0.277807,-0.0022 -0.413411,-0.0021 -0.302372,-0.04833 -0.529574,-0.117908 -0.756543,-0.338997 -0.0028,-0.0027 -0.0026,-0.0032 -0.0021,-0.0031 l -5.17e-4,-5.17e-4 c -0.01766,-0.01419 -0.03511,-0.02862 -0.05271,-0.04289 0.140024,0.113825 -0.177317,-0.173188 -0.212907,-0.235128 -0.09196,-0.160043 -0.193167,-0.316422 -0.217557,-0.503328 -0.0056,-0.04274 -0.0083,-0.08561 -0.01034,-0.128675 -0.02547,-0.07483 -0.03696,-0.159169 -0.05788,-0.327112 -0.0041,-0.03304 -2.77e-4,-0.06645 -5.17e-4,-0.09974 0.01679,-0.305752 0.08453,-0.574944 0.275952,-0.822172 0.01029,-0.01329 -0.01724,0.02846 -0.02584,0.04289 0.223995,-0.33396 0.421123,-0.527319 0.815971,-0.659391 0.160033,-0.04138 0.320635,-0.06415 0.482658,-0.0646 z m 0.428397,1.793689 c -0.02798,0.03045 -0.05674,0.06282 -0.0863,0.09663 0.02843,-0.0233 0.05173,-0.0458 0.07028,-0.06511 0.0032,-0.0059 0.0069,-0.01152 0.0098,-0.01757 0.0023,-0.0047 0.0041,-0.0093 0.0062,-0.01395 z m 0.592212,0.07235 c 1.02e-4,-0.0031 -5.5e-4,-0.0032 -0.0015,0.0016 -0.0061,0.02871 -0.01162,0.05747 -0.01757,0.0863 0.003,-0.0098 0.0059,-0.01989 0.0093,-0.02946 0.0049,-0.0136 0.0095,-0.04922 0.0098,-0.05839 z m -0.63562,0.0062 c -0.01172,0.01648 -0.0237,0.03293 -0.03514,0.04961 -0.0037,0.0053 0.0094,-0.009 0.01292,-0.01447 0.0074,-0.01171 0.01474,-0.02342 0.02222,-0.03514 z m 0.139526,0.07958 c -0.0062,0.01083 -0.0124,0.02159 -0.01964,0.03566 -0.0081,0.01575 -0.01504,0.03251 -0.01964,0.04961 -7e-4,0.0029 0.0028,0.0095 0.0047,0.0072 0.0191,-0.02345 0.0273,-0.06373 0.03462,-0.0925 z"
     id="path109" />
  <path
     style="fill:#ffffff;stroke-width:0.622142"
     d="M 8.9818807,10.966772 0.00310059,15.447636 14.602209,22.199161 c -0.01124,-0.05411 -0.02278,-0.108171 -0.03411,-0.162264 -0.09266,-0.43799 -0.18607,-0.875767 -0.270784,-1.315165 -0.08035,-0.442942 -0.128139,-0.890072 -0.183969,-1.336352 -0.06584,-0.359003 -0.06161,-0.720895 -0.02791,-1.082622 0.02158,-0.183612 0.05265,-0.366146 0.09353,-0.546219 -0.0063,-0.01888 -0.01129,-0.03867 -0.01447,-0.05943 -0.01709,-0.111504 -0.03504,-0.229835 -0.07752,-0.335897 -0.003,-0.0074 0.0048,0.02927 -10e-4,0.02377 -0.01432,-0.01362 -0.02129,-0.03302 -0.03204,-0.04961 0.0029,0.0073 0.01416,0.02802 0.0088,0.02222 -0.06539,-0.07094 -0.114008,-0.164141 -0.179318,-0.225826 -0.143372,-0.165314 -0.294802,-0.323614 -0.435115,-0.491443 -0.08955,-0.08627 -0.196015,-0.15056 -0.29714,-0.22686 -0.183589,-0.143375 -0.371842,-0.280068 -0.551904,-0.427364 -0.257358,-0.176186 -0.503798,-0.365201 -0.743624,-0.564823 -0.135281,-0.119725 -0.267642,-0.243433 -0.408244,-0.357085 -0.06581,-0.05319 -0.144657,-0.0989 -0.212907,-0.147794 -0.272434,-0.18836 -0.492649,-0.430864 -0.68988,-0.694531 C 10.36181,13.979225 10.194924,13.728689 10.047993,13.462739 9.9235972,13.197538 9.7949729,12.934476 9.6686605,12.670544 9.5554894,12.396237 9.4350598,12.125255 9.3229451,11.850956 9.2025753,11.575061 9.0937974,11.295122 8.9968669,11.01018 8.9920969,10.99563 8.9867359,10.9813 8.9818809,10.96677 Z m -2.5197428,2.215369 c 0.1446398,-0.002 0.2917305,0.01784 0.4480346,0.05633 0.3280306,0.118593 0.3827589,0.143326 0.6810954,0.376205 0.1529825,0.173674 0.2284836,0.294513 0.2997233,0.460953 0.1434188,0.1553 0.2365545,0.348498 0.2914551,0.556556 0.024259,0.09193 0.020062,0.189143 0.029972,0.283703 -0.013337,0.279426 -0.07214,0.546376 -0.236678,0.779281 -0.016714,0.02366 0.028854,-0.0504 0.043408,-0.07545 -0.057725,0.08559 -0.1223397,0.199764 -0.2025717,0.285771 -0.0054,0.006 -0.010722,0.01157 -0.017053,0.01809 l -5.167e-4,5.16e-4 c -0.00412,0.0069 -0.00853,0.01368 -0.012402,0.02067 1.075e-4,-7e-4 4.605e-4,-0.0026 0,-0.0021 -0.270884,0.307835 -0.3089782,0.419553 -0.7157186,0.532784 -0.091743,0.01394 -0.1834194,0.02985 -0.2754354,0.04186 -0.13175,0.01722 -0.2692904,-0.004 -0.4010091,-0.0036 C 6.2505545,16.4935 6.2051603,16.4932 6.0606121,16.44395 6.0036161,16.42453 5.9489706,16.39924 5.894214,16.37419 5.868668,16.36251 5.7933101,16.32618 5.820317,16.33388 c 0.00233,6.67e-4 0.00655,0.0027 0.0093,0.0036 C 5.804232,16.3262 5.779002,16.31473 5.753653,16.30337 5.719581,16.28275 5.685406,16.26197 5.6513336,16.24136 c 0.029776,0.01628 0.1178215,0.06763 0.0894,0.04909 -0.071263,-0.04648 -0.148092,-0.08442 -0.2180746,-0.132808 -0.037887,-0.0262 -0.1111823,-0.04537 -0.109554,-0.08837 -0.00329,-0.0027 -0.00644,-0.0058 -0.00982,-0.0083 0.0022,0.0016 0.00703,0.0052 0.00982,0.0072 3.51e-5,-5.31e-4 -5.83e-5,-9.02e-4 0,-0.0016 C 5.35805,16.030002 5.3021943,15.994042 5.2637601,15.941515 4.9782432,15.551333 4.9410716,15.51617 4.9164945,15.081619 c -0.058636,-0.234065 -0.062931,-0.460827 -0.023771,-0.703833 0.00817,-0.05071 0.019672,-0.101558 0.039791,-0.148828 0.045269,-0.106358 0.1037354,-0.206729 0.155546,-0.310058 0.1145409,-0.159778 0.1799463,-0.214844 0.2707845,-0.289905 -0.00907,0.0073 -0.012936,0.0101 -0.0062,0.0036 0.038637,-0.03696 0.081327,-0.06964 0.1219563,-0.104386 0.3444282,-0.204551 0.096842,-0.0788 0.4563029,-0.21239 0.030653,-0.01138 -0.042454,0.01479 -0.08785,0.02739 -0.022262,0.01028 -0.042562,0.01858 -0.029972,0.01085 0.0035,-0.0022 0.00727,-0.0037 0.010852,-0.0057 -5.333e-4,1.13e-4 -0.00156,4.15e-4 -0.00207,5.17e-4 -0.00971,0.0019 0.00806,-0.0061 0.026355,-0.01344 5.743e-4,-2.31e-4 9.769e-4,-2.88e-4 0.00155,-5.17e-4 0.01857,-0.0088 0.037358,-0.0168 0.055811,-0.02584 0.1890149,-0.08501 0.3705892,-0.124493 0.5565552,-0.127124 z"
     id="path112" />
  <path
     style="fill:#ffffff;stroke-width:0.622142"
     d="m 16.978809,6.9758016 -6.166032,3.0773314 c 0.03373,0.100586 0.06882,0.200637 0.102319,0.301273 0.08743,0.25435 0.178628,0.506545 0.294556,0.749825 0.0551,0.154391 -0.0258,-0.06636 0.104386,0.24443 0.06509,0.155391 0.117867,0.316507 0.196887,0.466121 0.09484,0.219537 0.209881,0.430127 0.301791,0.651123 0.04044,0.06994 0.07875,0.152485 0.125573,0.219625 0.07037,0.100915 0.149934,0.19555 0.213424,0.301274 0.02733,0.03452 0.05576,0.06774 0.08165,0.103353 0.0026,0.0035 0.0022,0.009 0.0031,0.01344 0.0067,0.009 0.01345,0.01787 0.02015,0.02687 0.06041,0.05913 0.132956,0.105465 0.198954,0.157613 0.120095,0.101366 -0.09122,-0.0752 0.194304,0.144178 0.177045,0.136026 0.333134,0.297435 0.500228,0.444934 0.245793,0.208649 0.521997,0.372184 0.778764,0.566374 -0.05599,0.0054 -0.0045,-5.27e-4 0.112654,0.09043 0.08626,0.06695 0.172106,0.133245 0.259416,0.198955 0.02366,0.0178 0.04697,0.03653 0.07028,0.05478 0.231926,0.173269 0.471402,0.339169 0.655774,0.566373 0.02984,0.04532 0.0033,0.0068 0.07906,0.09043 0.01769,0.01954 0.03476,0.03965 0.05219,0.05943 0.0078,-0.01435 0.01494,-0.02907 0.02274,-0.04341 0.267774,-0.456071 0.547888,-0.90459 0.844392,-1.342554 0.312968,-0.466646 0.647367,-0.918301 0.966866,-1.380278 0.272742,-0.382356 0.519583,-0.787419 0.82424,-1.146183 0.05672,-0.06679 0.117943,-0.12984 0.176733,-0.19482 0.344677,-0.373809 0.643015,-0.789336 0.937927,-1.203027 0.369498,-0.4467147 0.675814,-0.9377647 0.96945,-1.4360877 0.04501,-0.07554 0.08559,-0.153378 0.128674,-0.22996 z"
     id="path44" />
  <path
     id="path2-3"
     style="fill:#ffffff;stroke-width:0.560909"
     d="m 4.7831706,0 c -0.010582,0 -0.01912,0.00854 -0.01912,0.01912 v 2.7925944 c 0,0.00397 0.00156,0.00729 0.00362,0.010335 L 4.7061756,6.2027216 2.4608346,6.1991016 6.505549,9.8624441 C 7.7973888,8.6429763 9.0895868,7.4238714 10.381795,6.2047892 l -2.0665403,-0.00413 0.052193,-3.3796387 c 0.00168,-0.00285 0.0031,-0.00574 0.0031,-0.0093 v -0.179323 l 0.0031,-0.1999878 h -0.0031 V 0.0191203 c 0,-0.010582 -0.00854,-0.01912 -0.01912,-0.01912 z" />
  <path
     id="path2-3-9"
     style="fill:#ffffff;stroke-width:0.560909"
     d="m 26.284701,0.0387573 c -0.01058,0 -0.01912,0.00854 -0.01912,0.01912 v 2.7925944 c 0,0.00152 7e-4,0.00272 10e-4,0.00413 l -0.06563,3.6075318 -2.245341,-0.00362 4.044714,3.6633415 3.876766,-3.6576571 -2.066541,-0.00413 0.05529,-3.5956462 c 0.0038,-0.00348 0.0062,-0.00841 0.0062,-0.013953 V 0.0578776 c 0,-0.010582 -0.0085,-0.01912 -0.01912,-0.01912 z" />
</svg>
