<?xml version="1.0" encoding="UTF-8" standalone="no"?>
<svg
   width="35.869797mm"
   height="32.837738mm"
   viewBox="0 0 35.869797 32.837738"
   version="1.1"
   id="svg8"
   xmlns="http://www.w3.org/2000/svg"
   xmlns:svg="http://www.w3.org/2000/svg"
   xmlns:rdf="http://www.w3.org/1999/02/22-rdf-syntax-ns#"
   xmlns:cc="http://creativecommons.org/ns#"
   xmlns:dc="http://purl.org/dc/elements/1.1/">
  <defs
     id="defs2" />
  <metadata
     id="metadata5">
    <rdf:RDF>
      <cc:Work
         rdf:about="">
        <dc:format>image/svg+xml</dc:format>
        <dc:type
           rdf:resource="http://purl.org/dc/dcmitype/StillImage" />
      </cc:Work>
    </rdf:RDF>
  </metadata>
  <path
     style="fill:#ffffff;stroke-width:0.622142"
     d="M 3.3646525,22.623372 1.6820679,23.695141 0,24.767427 17.162777,32.837736 34.241838,24.486824 C 33.226379,23.902965 32.13603,23.245472 31.120581,22.661612 l -6.939111,3.124358 -6.939112,3.12384 -6.938594,-3.142961 z"
     id="path131" />
  <path
     style="fill:#ffffff;stroke-width:0.622142"
     d="m 22.742798,13.504549 c -7.74e-4,6.4e-4 -0.0018,0.0019 -0.0026,0.0026 0.0013,-8e-4 0.0032,-0.0017 0.0036,-0.0026 3.02e-4,-6.89e-4 -2.59e-4,-6.41e-4 -0.001,0 z"
     id="path134" />
  <path
     style="fill:#ffffff;stroke-width:0.622142"
     d="m 22.804293,13.478194 c -0.005,0.0027 -0.007,0.0039 -0.01654,0.0088 -0.01736,0.009 -0.02379,0.0077 -0.03979,0.01705 -0.003,0.0015 -0.0055,0.0034 -0.0088,0.0041 v -5.17e-4 c -0.02756,0.02054 -0.01136,0.0102 -0.04134,0.02687 -0.02552,0.01092 -0.03179,0.01284 -0.05374,0.02842 -0.01821,0.0094 -0.03251,0.02534 -0.05064,0.03514 -0.01736,0.0086 -0.03428,0.01741 -0.06201,0.03359 -0.03064,0.01358 -0.06073,0.02921 -0.09353,0.03721 -0.01376,4.02e-4 -0.03578,0.01538 -0.05271,0.0217 -0.363113,0.234801 -0.710542,0.492843 -1.0573,0.750858 -0.158049,0.149942 -0.362375,0.258947 -0.506429,0.423747 -0.03303,0.03778 -0.05926,0.08081 -0.09198,0.118856 -0.164755,0.130631 -0.279206,0.2971 -0.414445,0.453202 -0.146947,0.134729 -0.264869,0.303301 -0.381889,0.468705 -0.211803,0.315673 -0.444958,0.616249 -0.685746,0.910022 -0.107261,0.166599 -0.214186,0.332961 -0.318327,0.501779 -0.124526,0.232792 -0.239044,0.467757 -0.345715,0.709 -0.07249,0.186543 -0.106272,0.371083 -0.113172,0.569475 0.01069,0.230636 -0.03025,0.472169 0.03049,0.696081 -0.0022,-0.01706 -0.0066,-0.03397 -0.0062,-0.05116 10e-5,-0.0027 0.0059,0.0012 0.0072,0.0036 0.0189,0.03332 0.03652,0.0676 0.05271,0.102319 0.02521,0.05407 0.04839,0.108954 0.07183,0.163814 0.07869,0.184131 0.05711,0.136798 0.132809,0.355017 0.0463,0.223435 0.137106,0.43005 0.208256,0.644922 0.06477,0.23778 0.111634,0.513358 0.128674,0.804602 0.01002,0.290536 -5e-4,0.581199 -0.0015,0.871782 0.02908,0.395465 -0.07993,0.719348 -0.236678,1.073836 -0.127661,0.289592 -0.269071,0.534106 -0.467672,0.784448 -0.191229,0.231469 -0.379923,0.459188 -0.59893,0.665593 -0.271278,0.267633 -0.603404,0.470937 -0.86558,0.747241 -0.161469,0.137294 -0.292738,0.289603 -0.42478,0.452686 -0.157128,0.164247 -0.315363,0.326738 -0.480591,0.482657 l 1.18339,0.547254 16.886825,-7.721493 z"
     id="path130" />
  <path
     style="fill:#ffffff;stroke-width:0.622142"
     d="M 16.978809,10.514551 0.00310059,18.986385 14.353646,25.622672 c 0.185322,-0.159821 0.369214,-0.321297 0.556555,-0.478524 -0.0098,0.04884 -0.0026,0.0048 0.07958,-0.08062 0.05347,-0.05557 0.158597,-0.152088 0.214457,-0.203088 0.170043,-0.209805 0.345801,-0.412022 0.554488,-0.584978 0.288436,-0.276261 0.610117,-0.512569 0.902271,-0.784965 0.16556,-0.144973 0.280992,-0.33585 0.434082,-0.492993 0.11235,-0.132136 0.161173,-0.260871 0.239261,-0.417029 0.01793,-0.03977 0.0325,-0.08126 0.05374,-0.119372 0.0022,-0.0039 0.0044,0.01599 0.0062,0.01188 0.01189,-0.02663 0.0014,-0.06782 0.02584,-0.08371 0.0041,-0.0026 0.0064,0.0012 0.0078,0.0072 8.71e-4,-0.07389 -0.0078,-0.148447 0.0021,-0.221692 0.0028,-0.256785 0.005,-0.513725 0.0016,-0.770495 -0.0026,-0.05698 -0.01205,-0.113502 -0.01085,-0.170532 10e-5,-0.0035 0.009,0.01012 0.0083,0.0067 -0.01921,-0.08535 -0.06483,-0.163695 -0.06873,-0.253215 -0.0017,-0.0077 0.0068,0.01367 0.01033,0.02067 -0.03782,-0.193741 -0.167127,-0.404397 -0.187585,-0.610299 -0.08391,-0.266316 -0.246314,-0.496816 -0.317294,-0.767912 -0.06866,-0.367981 -0.06098,-0.740396 -0.05788,-1.113627 0.0222,-0.403072 0.10093,-0.790677 0.253731,-1.16582 0.04368,-0.09749 0.08247,-0.197229 0.127641,-0.294039 0.09475,-0.203081 0.226836,-0.386531 0.313676,-0.593762 0.142489,-0.244503 0.290798,-0.484957 0.46302,-0.710035 0.216856,-0.258417 0.430826,-0.520325 0.610299,-0.807185 0.159729,-0.225456 0.320255,-0.455702 0.516248,-0.65009 -0.07269,0.126396 0.12704,-0.158656 0.258382,-0.30024 0.102084,-0.110001 0.06274,-0.100268 0.125057,-0.112138 0.05152,-0.05713 0.214303,-0.237728 0.230993,-0.254248 0.19252,-0.190577 0.427282,-0.336362 0.629419,-0.515731 0.238578,-0.178445 0.481871,-0.350338 0.726054,-0.520898 z"
     id="path44" />
  <path
     id="path129"
     style="fill:#ffffff;stroke-width:0;stroke-dasharray:none"
     d="m 32.249764,0 -0.787105,0.39536886 -1.419491,1.43471464 4.016277,3.396377 1.478016,-1.3284396 0.332335,-0.736335 -0.09756,-0.6585263 C 34.982327,1.6119115 33.966206,0.82984084 33.097421,0.0082236 Z m -3.276929,2.8447583 -2.929798,2.5885593 -3.14507,2.9953147 -0.358574,2.0793247 -0.317535,1.838306 c 0.02822,0.0398 0.04952,0.08215 0.06525,0.125884 0.03759,0.02323 0.07023,0.04836 0.09484,0.07655 l 4.386286,-0.818573 6.055359,-5.4801282 z m -4.526886,6.5536351 0.968746,0.1878792 0.287936,0.8438764 -1.900499,0.597797 z" />
</svg>
