<?xml version="1.0" encoding="UTF-8" standalone="no"?>
<!-- Generator: Adobe Illustrator 16.0.0, SVG Export Plug-In . SVG Version: 6.00 Build 0)  -->

<svg
   version="1.1"
   id="Capa_1"
   x="0px"
   y="0px"
   width="134.65627"
   height="150"
   viewBox="0 0 134.65627 150"
   xml:space="preserve"
   xmlns="http://www.w3.org/2000/svg"
   xmlns:svg="http://www.w3.org/2000/svg"><defs
   id="defs21">
	

		
	
			
			
			
			
			
		
	

		
	
			
			
		</defs>

<g
   id="g7"
   transform="translate(-2.4045001)">
</g>
<g
   id="g8"
   transform="translate(-2.4045001)">
</g>
<g
   id="g9"
   transform="translate(-2.4045001)">
</g>
<g
   id="g10"
   transform="translate(-2.4045001)">
</g>
<g
   id="g11"
   transform="translate(-2.4045001)">
</g>
<g
   id="g12"
   transform="translate(-2.4045001)">
</g>
<g
   id="g13"
   transform="translate(-2.4045001)">
</g>
<g
   id="g14"
   transform="translate(-2.4045001)">
</g>
<g
   id="g15"
   transform="translate(-2.4045001)">
</g>
<g
   id="g16"
   transform="translate(-2.4045001)">
</g>
<g
   id="g17"
   transform="translate(-2.4045001)">
</g>
<g
   id="g18"
   transform="translate(-2.4045001)">
</g>
<g
   id="g19"
   transform="translate(-2.4045001)">
</g>
<g
   id="g20"
   transform="translate(-2.4045001)">
</g>
<g
   id="g21"
   transform="translate(-2.4045001)">
</g>
<g
   id="g1"><path
     d="M 134.65626,6.8205031 C 134.65626,3.0543853 131.60188,0 127.83895,0 H 8.5200435 C 4.7539257,0 1.702732,3.0543853 1.702732,6.8205031 c 0,2.5181922 1.3787821,4.6916889 3.4086558,5.8725899 V 91.232606 C 6.9561471,89.547428 9.1998596,87.495213 11.928699,84.999362 V 13.637814 H 124.4271 V 88.637815 H 36.564854 c -2.282012,2.492659 -4.366143,4.774671 -6.236436,6.823695 h 6.016214 L 24.088791,141.4273 c -0.970254,3.63845 1.193668,7.37584 4.832121,8.3429 3.619303,0.96387 7.372654,-1.19366 8.342908,-4.83212 L 49.551577,98.860591 H 86.801035 L 99.091983,144.93808 C 99.905848,147.98609 102.66022,150 105.67311,150 c 0.58726,0 1.17452,-0.0702 1.76178,-0.2298 3.64165,-0.97344 5.80238,-4.71083 4.83531,-8.3429 L 100.01117,95.458318 h 27.83097 c 1.88306,0 3.40547,-1.525597 3.40547,-3.408656 V 12.693093 c 2.03306,-1.184093 3.40865,-3.3543977 3.40865,-5.8725899 z"
     id="path1"
     style="stroke-width:3.19163;fill:#26292e;fill-opacity:1" /><path
     d="m 73.294077,75.858548 v -25.56811 c 0,-3.766117 -3.054385,-6.820503 -6.817312,-6.820503 -3.762926,0 -6.817311,3.054386 -6.817311,6.820503 v 25.56811 c 0,3.772501 3.054385,6.823694 6.817311,6.823694 3.762927,-0.0032 6.817312,-3.057577 6.817312,-6.823694 z"
     id="path2"
     style="stroke-width:3.19163;fill:#26292e;fill-opacity:1" /><path
     d="M 95.453531,75.858548 V 26.420273 c 0,-3.766117 -3.054386,-6.817311 -6.820503,-6.817311 -3.766118,0 -6.81412,3.051194 -6.81412,6.817311 v 49.438275 c 0,3.769309 3.054385,6.820503 6.817311,6.820503 3.762926,-0.0032 6.817312,-3.054386 6.817312,-6.820503 z"
     id="path3"
     style="stroke-width:3.19163;fill:#26292e;fill-opacity:1" /><path
     d="m 117.60979,75.858548 v -35.80046 c 0,-3.769309 -3.05438,-6.820503 -6.81731,-6.820503 -3.76612,0 -6.8205,3.051194 -6.8205,6.820503 v 35.80046 c 0,3.772501 3.05438,6.823694 6.8205,6.823694 3.76293,-0.0032 6.81731,-3.057577 6.81731,-6.823694 z"
     id="path4"
     style="stroke-width:3.19163;fill:#26292e;fill-opacity:1" /><path
     d="m 57.249809,38.440566 c 0,-11.552095 -9.398222,-20.950318 -20.950316,-20.950318 -11.552094,0 -20.950318,9.398223 -20.950318,20.950318 0,11.552094 9.398224,20.950316 20.950318,20.950316 1.051972,0 1.905142,-0.853169 1.905142,-1.905142 V 40.345708 h 17.140923 c 1.051082,0 1.904251,-0.85317 1.904251,-1.905142 z"
     id="path1-9"
     style="stroke-width:0.891504;fill:#26292e;fill-opacity:1" /><path
     d="M 56.241922,43.071116 H 41.92433 c -0.497753,0 -0.900172,0.406399 -0.900172,0.906128 v 14.400527 c 0,0.258777 0.108834,0.504819 0.299502,0.676206 0.165358,0.150166 0.379644,0.229925 0.600676,0.229925 0.03374,0 0.06581,-0.0017 0.09955,-0.0051 C 49.90864,58.398124 56.263861,52.005998 57.13957,44.077353 57.16734,43.82113 57.0864,43.564896 56.914305,43.37315 56.743904,43.182259 56.499228,43.071094 56.241916,43.071094 Z M 42.825351,57.332498 V 44.885073 h 12.377196 c -1.124588,6.289465 -6.123216,11.316456 -12.377196,12.447425 z"
     id="path2-6"
     style="stroke-width:0.846042;fill:#26292e;fill-opacity:1" /><path
     d="m 49.510086,62.029236 c -0.6479,-0.644709 -1.704328,-0.6479 -2.352228,0 0,0 -45.6402402,41.724114 -45.8604624,41.944334 -1.72986082,1.72986 -1.72986082,4.5385 0,6.27155 1.7330525,1.73305 4.5416827,1.73305 6.2715436,0 0.2202221,-0.21384 41.9411468,-45.857273 41.9411468,-45.857273 0.651091,-0.654283 0.6479,-1.70752 0,-2.358611 z"
     id="path5"
     style="stroke-width:3.19163;fill:#26292e;fill-opacity:1" /></g></svg>
